<svg width="75" height="68" viewBox="0 0 75 68" fill="none" xmlns="http://www.w3.org/2000/svg">
<path d="M30.8231 21.9603L51.216 32.0915C52.645 32.8014 52.708 34.8168 51.3261 35.6147L30.8231 47.4521" stroke="#1DFFF4" stroke-width="5" stroke-linecap="round" stroke-linejoin="round"/>
<path d="M70.9454 10.5623H5.37061V57.3325H70.9454V10.5623Z" stroke="#1DFFF4" stroke-width="2" stroke-miterlimit="10"/>
<path d="M70.5834 57.7914L68.8295 64.2137L69.3862 57.3477L67.2391 64.2137L68.1139 57.3477L65.4897 64.2137L66.6825 57.3477L64.0981 63.6415L65.1716 57.3477L62.7065 63.6415L63.8198 57.3477L61.1956 63.6415L62.3487 57.3477L59.2076 64.2137L60.798 57.3477L57.6172 63.6415L58.9691 57.3477L55.8678 63.6415L57.1004 57.3477L53.84 63.6415L55.2714 57.3477L51.693 63.6415L52.9653 57.3477L49.5062 63.6415L51.0171 57.3477L47.6772 63.6415L49.2676 57.3477L46.0073 63.6415L47.6772 57.3477L43.9796 64.2137L45.6097 57.3477L41.8325 64.2137L43.9796 57.3477" stroke="#1DFFF4" stroke-width="2"/>
<path d="M16.5791 57.3477L15.2007 63.9572L18.1147 57.3477L17.0438 63.6415L20.1822 57.3477L18.5123 63.6415L21.7726 57.3477L20.1822 63.6415L23.522 57.3477L22.0111 63.6415L25.4703 57.3477L24.1979 63.6415L27.7763 57.3477L26.345 63.6415L29.6053 57.3477L28.3727 63.6415L31.474 57.3477L30.1222 63.6415L33.303 57.3477L31.7126 64.2137L34.8536 57.3477L33.7006 63.6415L36.3247 57.3477L35.2114 63.6415L37.6766 57.3477L36.6031 63.6415L39.1875 57.3477L37.9947 64.2137L40.6188 57.3477L39.7441 64.2137L41.8911 57.3477L41.3345 64.2137L43.813 57.3477" stroke="#1DFFF4" stroke-width="2"/>
<path d="M2.85099 63.9453L5.36562 51.2617L2.77344 57.4463L5.36562 48.7245L2.85099 51.767L5.36562 44.2621L2.77344 47.3046L5.36562 39.5293L2.85099 41.9633L5.36562 36.0811L2.85099 37.5686L5.36562 32.2949H2.90638L5.36562 26.9536L2.77344 26.0747L5.36562 21.3419L2.90638 20.3277L5.36562 16.4062L2.85099 13.7694L5.36562 11.0649" stroke="#1DFFF4" stroke-width="2"/>
<path d="M2.77148 64.2642L5.94882 57.7849L4.73642 63.9885L7.49784 57.7849L6.36098 64.2642L8.96741 57.7849L7.98554 64.2642L10.1609 58.5199L9.56368 63.9885L11.8271 57.7849L10.6356 64.2642L13.046 58.5199L12.3796 63.9885L14.3909 58.5199L14.0196 63.9885L16.4479 57.7849" stroke="#1DFFF4" stroke-width="2"/>
</svg>
