<svg width="285" height="99" viewBox="0 0 285 99" fill="none" xmlns="http://www.w3.org/2000/svg">
<path d="M45.7732 57.4254C46.0158 57.4254 46.2238 57.5034 46.3972 57.6594C46.5705 57.798 46.6572 57.98 46.6572 58.2054C46.6572 58.4307 46.5705 58.6214 46.3972 58.7774C46.2238 58.916 46.0158 58.9854 45.7732 58.9854H35.7112C35.4685 58.9854 35.2605 58.8987 35.0872 58.7254C34.9138 58.552 34.8272 58.344 34.8272 58.1014V40.1094C34.8272 39.8667 34.9138 39.6587 35.0872 39.4854C35.2605 39.312 35.4685 39.2254 35.7112 39.2254H37.2712C37.5138 39.2254 37.7218 39.312 37.8952 39.4854C38.0685 39.6587 38.1552 39.8667 38.1552 40.1094V57.4254H45.7732ZM64.6904 57.2434C64.1531 57.7807 63.4684 58.2487 62.6364 58.6474C61.8217 59.046 60.9291 59.2454 59.9584 59.2454C57.8091 59.2454 56.1364 58.63 54.9404 57.3994C53.7617 56.1514 53.1724 54.4787 53.1724 52.3814C53.1724 51.064 53.4411 49.8854 53.9784 48.8454C54.5331 47.8054 55.2871 46.982 56.2404 46.3754C57.2111 45.7687 58.3291 45.4654 59.5944 45.4654C60.8944 45.4654 62.0297 45.7427 63.0004 46.2974C63.9884 46.852 64.7597 47.6147 65.3144 48.5854C65.8691 49.556 66.1464 50.674 66.1464 51.9394C66.1464 52.182 66.0597 52.3814 65.8864 52.5374C65.7304 52.6934 65.5311 52.7714 65.2884 52.7714H55.9804C56.0497 54.314 56.4571 55.5187 57.2024 56.3854C57.9477 57.252 58.8664 57.6854 59.9584 57.6854C60.5131 57.6854 60.9551 57.538 61.2844 57.2434C61.6137 56.9487 61.9431 56.5327 62.2724 55.9954C62.4631 55.614 62.7577 55.4667 63.1564 55.5534L64.1184 55.7874C64.6557 55.926 64.9244 56.2294 64.9244 56.6974C64.9244 56.9054 64.8464 57.0874 64.6904 57.2434ZM59.5944 47.0254C59.0917 47.0254 58.5977 47.216 58.1124 47.5974C57.6271 47.9614 57.2024 48.4554 56.8384 49.0794C56.4744 49.7034 56.2231 50.414 56.0844 51.2114H62.7924C62.6884 49.9807 62.3504 48.9754 61.7784 48.1954C61.2064 47.4154 60.4784 47.0254 59.5944 47.0254ZM79.4239 58.3874C79.4239 58.9594 79.1379 59.2454 78.5659 59.2454H77.2139C76.6419 59.2454 76.3559 58.9594 76.3559 58.3874V47.2854H73.8859C73.3139 47.2854 73.0279 47.0254 73.0279 46.5054C73.0279 45.9854 73.3139 45.7254 73.8859 45.7254H76.3559V40.0834C76.3559 39.5114 76.6419 39.2254 77.2139 39.2254H78.5659C79.1379 39.2254 79.4239 39.5114 79.4239 40.0834V45.7254H81.8939C82.4659 45.7254 82.7519 45.9854 82.7519 46.5054C82.7519 47.0254 82.4659 47.2854 81.8939 47.2854H79.4239V58.3874ZM87.7333 40.0054C87.7333 39.7627 87.82 39.5547 87.9933 39.3814C88.1666 39.208 88.3746 39.1214 88.6173 39.1214H90.3333C90.576 39.1214 90.784 39.208 90.9573 39.3814C91.1306 39.5547 91.2173 39.7627 91.2173 40.0054V41.2014C91.2173 41.444 91.1306 41.652 90.9573 41.8254C90.784 41.9987 90.576 42.0854 90.3333 42.0854H88.6173C88.3746 42.0854 88.1666 41.9987 87.9933 41.8254C87.82 41.652 87.7333 41.444 87.7333 41.2014V40.0054ZM110.379 56.2814C110.327 56.1774 110.301 56.082 110.301 55.9954C110.301 55.7874 110.397 55.614 110.587 55.4754C110.778 55.3194 110.995 55.2414 111.237 55.2414H112.745C113.161 55.2414 113.43 55.484 113.551 55.9694C113.69 56.472 114.011 56.8794 114.513 57.1914C115.016 57.5034 115.77 57.6594 116.775 57.6594C117.885 57.6594 118.647 57.46 119.063 57.0614C119.497 56.6627 119.713 56.0907 119.713 55.3454C119.713 54.5827 119.427 53.9847 118.855 53.5514C118.283 53.1007 117.477 52.8927 116.437 52.9274C114.981 52.962 113.82 52.832 112.953 52.5374C112.104 52.2254 111.489 51.8007 111.107 51.2634C110.743 50.726 110.561 50.128 110.561 49.4694C110.561 48.2387 111.107 47.268 112.199 46.5574C113.309 45.8294 114.869 45.4654 116.879 45.4654C119.115 45.4654 120.814 45.942 121.975 46.8954C122.443 47.2767 122.677 47.6147 122.677 47.9094C122.677 48.0827 122.608 48.2127 122.469 48.2994L122.027 48.6374C121.854 48.7587 121.689 48.8194 121.533 48.8194C121.36 48.8194 121.221 48.776 121.117 48.6894C120.372 48.1347 119.653 47.7187 118.959 47.4414C118.283 47.164 117.59 47.0254 116.879 47.0254C115.909 47.0254 115.163 47.2594 114.643 47.7274C114.141 48.178 113.889 48.7587 113.889 49.4694C113.889 50.1454 114.08 50.6307 114.461 50.9254C114.86 51.22 115.519 51.3674 116.437 51.3674C117.616 51.3674 118.708 51.5234 119.713 51.8354C120.719 52.1474 121.525 52.6067 122.131 53.2134C122.738 53.8027 123.041 54.5134 123.041 55.3454C123.041 56.0907 122.773 56.758 122.235 57.3474C121.698 57.9367 120.953 58.396 119.999 58.7254C119.063 59.0547 117.989 59.2194 116.775 59.2194C115.198 59.2194 113.829 58.9334 112.667 58.3614C111.523 57.7894 110.761 57.096 110.379 56.2814ZM154.467 45.4654C156.045 45.4654 157.327 45.7947 158.315 46.4534C159.303 47.112 160.031 47.9787 160.499 49.0534C160.967 50.1107 161.201 51.2547 161.201 52.4854C161.201 53.716 160.924 54.8427 160.369 55.8654C159.815 56.888 159.052 57.7114 158.081 58.3354C157.128 58.942 156.036 59.2454 154.805 59.2454C153.419 59.2454 152.335 58.9507 151.555 58.3614C151.434 58.7774 151.148 58.9854 150.697 58.9854H149.397C149.155 58.9854 148.947 58.8987 148.773 58.7254C148.6 58.552 148.513 58.344 148.513 58.1014V40.1094C148.513 39.8667 148.6 39.6587 148.773 39.4854C148.947 39.312 149.155 39.2254 149.397 39.2254H150.697C150.94 39.2254 151.148 39.312 151.321 39.4854C151.495 39.6587 151.581 39.8667 151.581 40.1094V46.5574C151.945 46.2107 152.37 45.942 152.855 45.7514C153.341 45.5607 153.878 45.4654 154.467 45.4654ZM154.467 47.2074C153.999 47.2074 153.549 47.4414 153.115 47.9094C152.682 48.36 152.318 48.9754 152.023 49.7554C151.746 50.5354 151.607 51.402 151.607 52.3554C151.607 54.0714 151.893 55.3887 152.465 56.3074C153.055 57.226 153.835 57.6854 154.805 57.6854C155.325 57.6854 155.863 57.4947 156.417 57.1134C156.972 56.7147 157.44 56.134 157.821 55.3714C158.203 54.5914 158.393 53.6294 158.393 52.4854C158.393 51.4974 158.229 50.6047 157.899 49.8074C157.587 49.01 157.137 48.3774 156.547 47.9094C155.958 47.4414 155.265 47.2074 154.467 47.2074ZM180.776 57.2434C180.239 57.7807 179.554 58.2487 178.722 58.6474C177.908 59.046 177.015 59.2454 176.044 59.2454C173.895 59.2454 172.222 58.63 171.026 57.3994C169.848 56.1514 169.258 54.4787 169.258 52.3814C169.258 51.064 169.527 49.8854 170.064 48.8454C170.619 47.8054 171.373 46.982 172.326 46.3754C173.297 45.7687 174.415 45.4654 175.68 45.4654C176.98 45.4654 178.116 45.7427 179.086 46.2974C180.074 46.852 180.846 47.6147 181.4 48.5854C181.955 49.556 182.232 50.674 182.232 51.9394C182.232 52.182 182.146 52.3814 181.972 52.5374C181.816 52.6934 181.617 52.7714 181.374 52.7714H172.066C172.136 54.314 172.543 55.5187 173.288 56.3854C174.034 57.252 174.952 57.6854 176.044 57.6854C176.599 57.6854 177.041 57.538 177.37 57.2434C177.7 56.9487 178.029 56.5327 178.358 55.9954C178.549 55.614 178.844 55.4667 179.242 55.5534L180.204 55.7874C180.742 55.926 181.01 56.2294 181.01 56.6974C181.01 56.9054 180.932 57.0874 180.776 57.2434ZM175.68 47.0254C175.178 47.0254 174.684 47.216 174.198 47.5974C173.713 47.9614 173.288 48.4554 172.924 49.0794C172.56 49.7034 172.309 50.414 172.17 51.2114H178.878C178.774 49.9807 178.436 48.9754 177.864 48.1954C177.292 47.4154 176.564 47.0254 175.68 47.0254ZM191.981 62.2094C191.79 62.0187 191.695 61.8107 191.695 61.5854C191.695 61.1347 191.955 60.8227 192.475 60.6494L193.307 60.3894C193.359 60.372 193.428 60.3634 193.515 60.3634C193.81 60.3634 194.044 60.4934 194.217 60.7534C194.668 61.412 195.04 61.8454 195.335 62.0534C195.647 62.2614 196.046 62.3654 196.531 62.3654C197.467 62.3654 198.195 62.1574 198.715 61.7414C199.252 61.3427 199.521 60.7187 199.521 59.8694V58.0494C199.07 58.4307 198.559 58.7254 197.987 58.9334C197.432 59.1414 196.808 59.2454 196.115 59.2454C194.884 59.2454 193.801 58.942 192.865 58.3354C191.929 57.7114 191.201 56.8707 190.681 55.8134C190.161 54.7387 189.901 53.534 189.901 52.1994C189.901 50.882 190.135 49.7207 190.603 48.7154C191.071 47.71 191.738 46.9214 192.605 46.3494C193.489 45.76 194.546 45.4654 195.777 45.4654C196.557 45.4654 197.259 45.5607 197.883 45.7514C198.507 45.942 199.053 46.2107 199.521 46.5574C199.538 46.3147 199.625 46.1154 199.781 45.9594C199.937 45.8034 200.145 45.7254 200.405 45.7254H201.705C201.948 45.7254 202.156 45.812 202.329 45.9854C202.502 46.1587 202.589 46.3667 202.589 46.6094V59.8694C202.589 60.6667 202.32 61.3687 201.783 61.9754C201.263 62.582 200.544 63.0587 199.625 63.4054C198.706 63.752 197.675 63.9254 196.531 63.9254C194.676 63.9254 193.16 63.3534 191.981 62.2094ZM196.115 57.6594C196.652 57.6594 197.181 57.4774 197.701 57.1134C198.221 56.7494 198.646 56.1774 198.975 55.3974C199.322 54.6 199.495 53.586 199.495 52.3554C199.495 50.466 199.174 49.114 198.533 48.2994C197.892 47.4674 196.973 47.0514 195.777 47.0514C195.344 47.0514 194.91 47.242 194.477 47.6234C194.044 47.9874 193.68 48.5507 193.385 49.3134C193.108 50.076 192.969 51.038 192.969 52.1994C192.969 53.2394 193.073 54.1754 193.281 55.0074C193.506 55.822 193.844 56.472 194.295 56.9574C194.763 57.4254 195.37 57.6594 196.115 57.6594ZM215.025 42.4234C215.025 42.666 214.939 42.874 214.765 43.0474C214.592 43.2207 214.384 43.3074 214.141 43.3074H212.581C212.339 43.3074 212.131 43.2207 211.957 43.0474C211.784 42.874 211.697 42.666 211.697 42.4234V40.8894C211.697 40.6467 211.784 40.4387 211.957 40.2654C212.131 40.092 212.339 40.0054 212.581 40.0054H214.141C214.384 40.0054 214.592 40.092 214.765 40.2654C214.939 40.4387 215.025 40.6467 215.025 40.8894V42.4234ZM215.025 58.1014C215.025 58.344 214.939 58.552 214.765 58.7254C214.592 58.8987 214.384 58.9854 214.141 58.9854H212.581C212.339 58.9854 212.131 58.8987 211.957 58.7254C211.784 58.552 211.697 58.344 211.697 58.1014V46.6094C211.697 46.3667 211.784 46.1587 211.957 45.9854C212.131 45.812 212.339 45.7254 212.581 45.7254H214.141C214.384 45.7254 214.592 45.812 214.765 45.9854C214.939 46.1587 215.025 46.3667 215.025 46.6094V58.1014ZM236.864 58.0494C236.864 58.3267 236.778 58.552 236.604 58.7254C236.431 58.8987 236.223 58.9854 235.98 58.9854H234.524C234.282 58.9854 234.074 58.8987 233.9 58.7254C233.727 58.5347 233.64 58.3007 233.64 58.0234C233.64 56.7407 233.64 55.7527 233.64 55.0594C233.64 54.3487 233.632 53.8114 233.614 53.4474C233.614 53.066 233.614 52.7454 233.614 52.4854C233.614 50.752 233.424 49.4087 233.042 48.4554C232.678 47.502 232.072 47.0254 231.222 47.0254C230.148 47.0254 229.359 47.2594 228.856 47.7274C228.354 48.178 228.102 48.9147 228.102 49.9374V58.1014C228.102 58.344 228.016 58.552 227.842 58.7254C227.669 58.8987 227.461 58.9854 227.218 58.9854H225.658C225.416 58.9854 225.208 58.8987 225.034 58.7254C224.861 58.552 224.774 58.344 224.774 58.1014V46.3494C224.774 46.1067 224.861 45.8987 225.034 45.7254C225.208 45.552 225.416 45.4654 225.658 45.4654H227.218C227.6 45.4654 227.868 45.63 228.024 45.9594C228.978 45.63 230.044 45.4654 231.222 45.4654C232.453 45.4654 233.432 45.656 234.16 46.0374C234.888 46.4187 235.443 46.9474 235.824 47.6234C236.206 48.282 236.466 49.036 236.604 49.8854C236.743 50.7347 236.821 51.6274 236.838 52.5634C236.856 52.8234 236.864 53.144 236.864 53.5254C236.864 53.8894 236.864 54.418 236.864 55.1114C236.864 55.8047 236.864 56.784 236.864 58.0494ZM249.963 52.1734C249.963 52.416 249.876 52.624 249.703 52.7974C249.529 52.9707 249.321 53.0574 249.079 53.0574H247.519C247.276 53.0574 247.068 52.9707 246.895 52.7974C246.721 52.624 246.635 52.416 246.635 52.1734V40.1094C246.635 39.8667 246.721 39.6587 246.895 39.4854C247.068 39.312 247.276 39.2254 247.519 39.2254H249.079C249.321 39.2254 249.529 39.312 249.703 39.4854C249.876 39.6587 249.963 39.8667 249.963 40.1094V52.1734ZM249.963 58.1534C249.963 58.396 249.876 58.604 249.703 58.7774C249.529 58.9507 249.321 59.0374 249.079 59.0374H247.519C247.276 59.0374 247.068 58.9507 246.895 58.7774C246.721 58.604 246.635 58.396 246.635 58.1534V57.5814C246.635 57.3387 246.721 57.1307 246.895 56.9574C247.068 56.784 247.276 56.6974 247.519 56.6974H249.079C249.321 56.6974 249.529 56.784 249.703 56.9574C249.876 57.1307 249.963 57.3387 249.963 57.5814V58.1534Z" fill="#1DFFF4"/>
<path d="M270.89 15.2461H14.8901V83.6801H270.89V15.2461Z" stroke="#1DFFF4" stroke-width="2" stroke-miterlimit="10"/>
<path d="M269.475 84.3488L262.629 93.7458L264.802 83.6995L256.42 93.7458L259.835 83.6995L249.59 93.7458L254.247 83.6995L244.157 92.9086L248.348 83.6995L238.725 92.9086L243.071 83.6995L232.826 92.9086L237.328 83.6995L225.065 93.7458L231.274 83.6995L218.856 92.9086L224.134 83.6995L212.027 92.9086L216.839 83.6995L204.11 92.9086L209.698 83.6995L195.729 92.9086L200.696 83.6995L187.191 92.9086L193.09 83.6995L180.051 92.9086L186.26 83.6995L173.532 92.9086L180.051 83.6995L165.616 93.7458L171.98 83.6995L157.234 93.7458L165.616 83.6995" stroke="#1DFFF4" stroke-width="2"/>
<path d="M58.6465 83.6995L53.2651 93.3706L64.6411 83.6995L60.4605 92.9086L72.7126 83.6995L66.1933 92.9086L78.9214 83.6995L72.7126 92.9086L85.7511 83.6995L79.8527 92.9086L93.3569 83.6995L88.3899 92.9086L102.36 83.6995L96.7718 92.9086L109.5 83.6995L104.688 92.9086L116.795 83.6995L111.518 92.9086L123.935 83.6995L117.727 93.7458L129.989 83.6995L125.488 92.9086L135.732 83.6995L131.386 92.9086L141.01 83.6995L136.819 92.9086L146.908 83.6995L142.251 93.7458L152.496 83.6995L149.081 93.7458L157.463 83.6995L155.29 93.7458L164.966 83.6995" stroke="#1DFFF4" stroke-width="2"/>
<path d="M5.05227 93.3541L14.8692 74.7954L4.74951 83.8448L14.8692 71.083L5.05227 75.5348L14.8692 64.5537L4.74951 69.0055L14.8692 57.6287L5.05227 61.1901L14.8692 52.5833L5.05227 54.7598L14.8692 47.0433H5.2685L14.8692 39.228L4.74951 37.9419L14.8692 31.0169L5.2685 29.5329L14.8692 23.7951L5.05227 19.9369L14.8692 15.9797" stroke="#1DFFF4" stroke-width="2"/>
<path d="M4.74561 93.822L17.1497 84.3416L12.4166 93.4186L23.197 84.3416L18.7588 93.822L28.9341 84.3416L25.1009 93.822L33.5933 85.4171L31.2619 93.4186L40.0982 84.3416L35.4466 93.822L44.8568 85.4171L42.255 93.4186L50.1072 85.4171L48.6576 93.4186L58.1373 84.3416" stroke="#1DFFF4" stroke-width="2"/>
</svg>
