<svg width="278" height="86" viewBox="0 0 278 86" fill="none" xmlns="http://www.w3.org/2000/svg">
<path d="M24.9213 1.98312L256.01 1.57227L254.409 72.2811L23.3202 72.692L24.9213 1.98312Z" stroke="#F270D9" stroke-width="2" stroke-miterlimit="10"/>
<path d="M43.612 47.5227L44.0212 29.6319L50.735 29.6184C52.1022 29.6157 53.1926 29.7965 54.0062 30.161C54.828 30.5173 55.4623 31.0733 55.9088 31.829C56.3637 32.5766 56.5818 33.3612 56.563 34.183C56.5455 34.9477 56.3215 35.6682 55.891 36.3443C55.4605 37.0204 54.8214 37.5668 53.9737 37.9834C55.0488 38.2985 55.8665 38.8379 56.4268 39.6015C56.9953 40.3651 57.2676 41.2676 57.2438 42.309C57.2246 43.147 57.0277 43.9284 56.6531 44.6532C56.2868 45.3698 55.8387 45.924 55.309 46.3155C54.7792 46.7071 54.1173 47.0054 53.3233 47.2103C52.5375 47.4072 51.575 47.5067 50.4357 47.509L43.612 47.5227ZM46.2174 37.1447L50.087 37.1369C51.1368 37.1348 51.8912 37.0642 52.3501 36.9249C52.9564 36.7447 53.4148 36.4469 53.7254 36.0313C54.0442 35.6158 54.2107 35.0948 54.225 34.4683C54.2386 33.8744 54.1081 33.354 53.8335 32.9071C53.5591 32.452 53.1593 32.1437 52.634 31.982C52.1089 31.8122 51.2035 31.7286 49.9177 31.7312L46.3411 31.7384L46.2174 37.1447ZM46.0284 45.4067L50.484 45.3978C51.249 45.3962 51.7867 45.3667 52.0973 45.3091C52.6448 45.2104 53.1042 45.0467 53.4756 44.8182C53.847 44.5897 54.1557 44.2596 54.4015 43.8279C54.6476 43.3881 54.7771 42.8834 54.7902 42.3139C54.8054 41.6467 54.6477 41.0694 54.3171 40.582C53.9867 40.0864 53.5185 39.7415 52.9126 39.5475C52.315 39.3453 51.4466 39.2454 50.3073 39.2477L46.1691 39.2559L46.0284 45.4067ZM66.6832 47.4764L67.0924 29.5856L80.0318 29.5597L79.9836 31.6709L69.4123 31.6921L69.287 37.1717L79.1868 37.1518L79.1388 39.2509L69.239 39.2707L69.0997 45.3604L80.086 45.3384L80.0377 47.4497L66.6832 47.4764ZM88.885 41.6842L91.1233 41.4844C91.2086 42.3792 91.4359 43.115 91.8052 43.6919C92.1828 44.2606 92.7744 44.7231 93.58 45.0795C94.3858 45.4277 95.2973 45.6008 96.3146 45.5987C97.2179 45.5969 98.0185 45.4611 98.7164 45.1912C99.4143 44.9214 99.9353 44.5542 100.28 44.0898C100.632 43.6172 100.815 43.1043 100.827 42.5511C100.84 41.9897 100.689 41.5019 100.373 41.0876C100.057 40.6652 99.5278 40.3124 98.7856 40.0291C98.3098 39.8429 97.2544 39.5562 95.6194 39.169C93.9847 38.7736 92.8417 38.4017 92.1905 38.0532C91.3463 37.6074 90.7201 37.0555 90.312 36.3973C89.9122 35.731 89.7217 34.987 89.7405 34.1653C89.7611 33.2622 90.0368 32.4196 90.5673 31.6375C91.0981 30.8473 91.8604 30.2478 92.8544 29.839C93.8484 29.4303 94.9476 29.2247 96.1521 29.2223C97.4786 29.2196 98.6414 29.4329 99.6407 29.8621C100.648 30.2831 101.415 30.908 101.941 31.7367C102.468 32.5655 102.739 33.5046 102.756 34.5541L100.481 34.7295C100.385 33.5988 99.9898 32.7454 99.295 32.1692C98.6083 31.5929 97.5773 31.3062 96.202 31.3089C94.7697 31.3118 93.7179 31.5783 93.0467 32.1085C92.3837 32.6305 92.0438 33.2617 92.0268 34.002C92.0121 34.6448 92.232 35.1731 92.6863 35.5871C93.1326 36.0011 94.311 36.4259 96.2215 36.8614C98.1403 37.2887 99.4541 37.6644 100.163 37.9884C101.193 38.4663 101.949 39.075 102.428 39.8143C102.908 40.5456 103.137 41.3912 103.115 42.3512C103.093 43.3031 102.8 44.2027 102.235 45.0499C101.671 45.889 100.87 46.5455 99.8342 47.0195C98.8063 47.4853 97.6536 47.7194 96.3759 47.722C94.7564 47.7252 93.4028 47.492 92.3149 47.0223C91.2352 46.5527 90.3929 45.8465 89.7878 44.904C89.1911 43.9534 88.8902 42.8801 88.885 41.6842ZM117.037 47.3755L117.398 31.5959L111.502 31.6077L111.55 29.4965L125.735 29.468L125.687 31.5793L119.766 31.5912L119.405 47.3707L117.037 47.3755ZM134.066 47.3413L134.475 29.4505L147.415 29.4246L147.366 31.5358L136.795 31.557L136.67 37.0366L146.57 37.0167L146.522 39.1158L136.622 39.1356L136.482 45.2253L147.469 45.2033L147.42 47.3146L134.066 47.3413ZM156.844 47.2957L157.253 29.4049L159.622 29.4001L159.261 45.1797L168.074 45.162L168.026 47.2733L156.844 47.2957ZM177.01 47.2553L177.419 29.3644L179.787 29.3597L179.427 45.1392L188.24 45.1216L188.192 47.2328L177.01 47.2553ZM197.323 47.2145L197.732 29.3237L210.671 29.2978L210.623 31.409L200.052 31.4302L199.926 36.9097L209.826 36.8899L209.778 38.989L199.878 39.0088L199.739 45.0985L210.725 45.0765L210.677 47.1878L197.323 47.2145ZM220.174 47.1687L220.583 29.2779L223.013 29.273L232.091 43.3008L232.412 29.2542L234.682 29.2496L234.273 47.1404L231.844 47.1453L222.766 33.1053L222.445 47.1642L220.174 47.1687Z" fill="#F270D9"/>
<path d="M255.891 2.84219L266.585 12.3286L264.954 83.6378L28.9431 84.1109L23.7192 73.9347" stroke="#F270D9" stroke-width="2"/>
</svg>
