<svg width="135" height="92" viewBox="0 0 135 92" fill="none" xmlns="http://www.w3.org/2000/svg">
<path d="M49.1641 47.4769C48.7374 48.1703 48.5241 48.8103 48.5241 49.3969C48.5241 49.9836 48.7374 50.5703 49.1641 51.1569L49.8841 52.1969C50.4707 52.9969 51.0841 53.3969 51.7241 53.3969C52.4174 53.3969 53.0307 52.9969 53.5641 52.1969L67.0841 32.1969L83.5641 52.6769C84.2041 53.4236 84.8174 53.7969 85.4041 53.7969C86.0441 53.7969 86.6574 53.3436 87.2441 52.4369L88.1241 50.9169C88.4441 50.3303 88.6041 49.7436 88.6041 49.1569C88.6041 48.5169 88.3641 47.8769 87.8841 47.2369L68.8441 23.5569C68.3107 22.8636 67.6974 22.5169 67.0041 22.5169C66.3641 22.5169 65.7507 22.9169 65.1641 23.7169L49.1641 47.4769Z" fill="#C4C4C4"/>
<path d="M111.191 1.19501H20.8389V77.0975H111.191V1.19501Z" stroke="#CFF431" stroke-width="2" stroke-miterlimit="10"/>
<path d="M4.51894 88.8306L20.8076 67.9521L4.0166 78.1326L20.8076 63.7756L4.51894 68.7839L20.8076 56.4301L4.0166 61.4384L20.8076 48.6395L4.51894 52.6461L20.8076 42.9635L4.51894 45.412L20.8076 36.731H4.87773L20.8076 27.9388L4.0166 26.4919L20.8076 18.7012L4.87773 17.0318L20.8076 10.5767L4.51894 6.23625L20.8076 1.78448" stroke="#CFF431" stroke-width="2"/>
<path d="M4.00391 89.3992L29.1571 77.9009L19.5592 88.91L41.4199 77.9009L32.42 89.3992L53.0537 77.9009L45.2808 89.3992L62.5016 79.2053L57.774 88.91L75.6925 77.9009L66.2598 89.3992L85.342 79.2053L80.066 88.91L95.9888 79.2053L93.0493 88.91L112.272 77.9009" stroke="#CFF431" stroke-width="2"/>
</svg>
