<svg width="135" height="92" viewBox="0 0 135 92" fill="none" xmlns="http://www.w3.org/2000/svg">
<path d="M49.1641 28.8369C48.7374 28.1436 48.5241 27.5036 48.5241 26.9169C48.5241 26.3303 48.7374 25.7436 49.1641 25.1569L49.8841 24.1169C50.4707 23.3169 51.0841 22.9169 51.7241 22.9169C52.4174 22.9169 53.0307 23.3169 53.5641 24.1169L67.0841 44.1169L83.5641 23.6369C84.2041 22.8903 84.8174 22.5169 85.4041 22.5169C86.0441 22.5169 86.6574 22.9703 87.2441 23.8769L88.1241 25.3969C88.4441 25.9836 88.6041 26.5703 88.6041 27.1569C88.6041 27.7969 88.3641 28.4369 87.8841 29.0769L68.8441 52.7569C68.3107 53.4503 67.6974 53.7969 67.0041 53.7969C66.3641 53.7969 65.7507 53.3969 65.1641 52.5969L49.1641 28.8369Z" fill="#C4C4C4"/>
<path d="M111.191 1.19501H20.8389V77.0975H111.191V1.19501Z" stroke="#CFF431" stroke-width="2" stroke-miterlimit="10"/>
<path d="M4.51894 88.8306L20.8076 67.9521L4.0166 78.1326L20.8076 63.7756L4.51894 68.7839L20.8076 56.4301L4.0166 61.4384L20.8076 48.6395L4.51894 52.6461L20.8076 42.9635L4.51894 45.412L20.8076 36.731H4.87773L20.8076 27.9388L4.0166 26.4919L20.8076 18.7012L4.87773 17.0318L20.8076 10.5767L4.51894 6.23625L20.8076 1.78448" stroke="#CFF431" stroke-width="2"/>
<path d="M4.00391 89.3992L29.1571 77.9009L19.5592 88.91L41.4199 77.9009L32.42 89.3992L53.0537 77.9009L45.2808 89.3992L62.5016 79.2053L57.774 88.91L75.6925 77.9009L66.2598 89.3992L85.342 79.2053L80.066 88.91L95.9888 79.2053L93.0493 88.91L112.272 77.9009" stroke="#CFF431" stroke-width="2"/>
</svg>
