<svg width="39" height="38" viewBox="0 0 39 38" fill="none" xmlns="http://www.w3.org/2000/svg">
<g clip-path="url(#clip0)">
<mask id="path-1-inside-1" fill="white">
<path fill-rule="evenodd" clip-rule="evenodd" d="M35.3314 0.933838H2.06458C1.51702 0.933838 0.991882 1.14778 0.604699 1.5286C0.217516 1.90941 1.22505e-06 2.42592 1.22505e-06 2.96447V35.6844C-0.000294368 35.9512 0.052906 36.2154 0.156556 36.4619C0.260206 36.7084 0.412269 36.9324 0.604041 37.121C0.795813 37.3096 1.02353 37.4592 1.27414 37.5611C1.52476 37.6631 1.79337 37.7154 2.06458 37.7151H19.974V23.4719H15.1013V17.9214H19.974V13.8269C19.974 9.07627 22.9237 6.48881 27.2326 6.48881C28.6876 6.48523 30.1417 6.559 31.5886 6.70977V11.6726H28.5985C26.2554 11.6726 25.8016 12.7663 25.8016 14.3749V17.9103H31.391L30.6631 23.4631H25.8016V37.7239H35.3314C35.879 37.7239 36.4041 37.51 36.7913 37.1292C37.1785 36.7484 37.396 36.2318 37.396 35.6933V2.96447C37.396 2.42592 37.1785 1.90941 36.7913 1.5286C36.4041 1.14778 35.879 0.933838 35.3314 0.933838Z"/>
</mask>
<path d="M2.06458 0.933838V-1.06616V0.933838ZM1.22505e-06 35.6844L2 35.6867V35.6844H1.22505e-06ZM2.06458 37.7151V35.7151L2.06243 35.7151L2.06458 37.7151ZM19.974 37.7151V39.7151H21.974V37.7151H19.974ZM19.974 23.4719H21.974V21.4719H19.974V23.4719ZM15.1013 23.4719H13.1013V25.4719H15.1013V23.4719ZM15.1013 17.9214V15.9214H13.1013V17.9214H15.1013ZM19.974 17.9214V19.9214H21.974V17.9214H19.974ZM27.2326 6.48881V8.48882L27.2375 8.48881L27.2326 6.48881ZM31.5886 6.70977H33.5886V4.90736L31.7959 4.72055L31.5886 6.70977ZM31.5886 11.6726V13.6726H33.5886V11.6726H31.5886ZM25.8016 17.9103H23.8016V19.9103H25.8016V17.9103ZM31.391 17.9103L33.374 18.1702L33.6702 15.9103H31.391V17.9103ZM30.6631 23.4631V25.4631H32.418L32.6461 23.723L30.6631 23.4631ZM25.8016 23.4631V21.4631H23.8016V23.4631H25.8016ZM25.8016 37.7239H23.8016V39.7239H25.8016V37.7239ZM35.3314 37.7239V35.7239V37.7239ZM35.3314 -1.06616H2.06458V2.93384H35.3314V-1.06616ZM2.06458 -1.06616C0.997188 -1.06616 -0.0330352 -0.64943 -0.797746 0.102711L2.00714 2.95448C2.0168 2.94498 2.03684 2.93384 2.06458 2.93384V-1.06616ZM-0.797746 0.102711C-1.56358 0.855958 -2 1.88469 -2 2.96447H2C2 2.96447 2 2.96449 2 2.96453C2 2.96457 1.99999 2.96461 1.99999 2.96465C1.99998 2.96474 1.99997 2.96479 1.99997 2.96479C1.99997 2.96478 1.99999 2.96468 2.00005 2.96449C2.00011 2.9643 2.00021 2.96401 2.00037 2.96362C2.00097 2.96222 2.00265 2.9589 2.00714 2.95448L-0.797746 0.102711ZM-2 2.96447V35.6844H2V2.96447H-2ZM-2 35.6822C-2.00059 36.2166 -1.89396 36.7451 -1.68709 37.2371L2.0002 35.6867L2 35.6867L-2 35.6822ZM-1.68709 37.2371C-1.48024 37.729 -1.17769 38.1738 -0.798405 38.5469L2.00649 35.6951C2.00223 35.6909 2.00065 35.6877 2.0002 35.6867L-1.68709 37.2371ZM-0.798405 38.5469C-0.41919 38.9198 0.0292994 39.2139 0.520552 39.4137L2.02774 35.7085C2.01775 35.7045 2.01082 35.6994 2.00649 35.6951L-0.798405 38.5469ZM0.520552 39.4137C1.01175 39.6135 1.53707 39.7157 2.06672 39.7151L2.06243 35.7151C2.04967 35.7151 2.03778 35.7126 2.02774 35.7085L0.520552 39.4137ZM2.06458 39.7151H19.974V35.7151H2.06458V39.7151ZM21.974 37.7151V23.4719H17.974V37.7151H21.974ZM19.974 21.4719H15.1013V25.4719H19.974V21.4719ZM17.1013 23.4719V17.9214H13.1013V23.4719H17.1013ZM15.1013 19.9214H19.974V15.9214H15.1013V19.9214ZM21.974 17.9214V13.8269H17.974V17.9214H21.974ZM21.974 13.8269C21.974 11.8748 22.5695 10.6 23.3817 9.81031C24.2041 9.0107 25.4749 8.48881 27.2326 8.48881V4.48881C24.6814 4.48881 22.323 5.26065 20.5933 6.94245C18.8534 8.63414 17.974 11.0285 17.974 13.8269H21.974ZM27.2375 8.48881C28.6217 8.4854 30.005 8.55557 31.3814 8.699L31.7959 4.72055C30.2785 4.56242 28.7536 4.48507 27.2277 4.48882L27.2375 8.48881ZM29.5886 6.70977V11.6726H33.5886V6.70977H29.5886ZM31.5886 9.67257H28.5985V13.6726H31.5886V9.67257ZM28.5985 9.67257C27.1703 9.67257 25.7595 10.0017 24.8022 11.1196C23.9029 12.1699 23.8016 13.481 23.8016 14.3749H27.8016C27.8016 14.053 27.8258 13.8572 27.8535 13.7422C27.8781 13.6399 27.8909 13.6625 27.8405 13.7214C27.6958 13.8903 27.6835 13.6726 28.5985 13.6726V9.67257ZM23.8016 14.3749V17.9103H27.8016V14.3749H23.8016ZM25.8016 19.9103H31.391V15.9103H25.8016V19.9103ZM29.4079 17.6504L28.68 23.2031L32.6461 23.723L33.374 18.1702L29.4079 17.6504ZM30.6631 21.4631H25.8016V25.4631H30.6631V21.4631ZM23.8016 23.4631V37.7239H27.8016V23.4631H23.8016ZM25.8016 39.7239H35.3314V35.7239H25.8016V39.7239ZM35.3314 39.7239C36.3988 39.7239 37.429 39.3072 38.1937 38.5551L35.3888 35.7033C35.3792 35.7128 35.3591 35.7239 35.3314 35.7239V39.7239ZM38.1937 38.5551C38.9595 37.8018 39.396 36.7731 39.396 35.6933H35.396C35.396 35.6933 35.396 35.6933 35.396 35.6932C35.396 35.6932 35.396 35.6932 35.396 35.6931C35.396 35.693 35.396 35.693 35.396 35.693C35.396 35.693 35.396 35.6931 35.3959 35.6933C35.3959 35.6935 35.3958 35.6938 35.3956 35.6941C35.395 35.6955 35.3933 35.6989 35.3888 35.7033L38.1937 38.5551ZM39.396 35.6933V2.96447H35.396V35.6933H39.396ZM39.396 2.96447C39.396 1.88469 38.9595 0.855958 38.1937 0.102711L35.3888 2.95448C35.3933 2.9589 35.395 2.96222 35.3956 2.96362C35.3958 2.96401 35.3959 2.9643 35.3959 2.96449C35.396 2.96468 35.396 2.96478 35.396 2.96479C35.396 2.96479 35.396 2.96474 35.396 2.96465C35.396 2.96461 35.396 2.96457 35.396 2.96453C35.396 2.96449 35.396 2.96447 35.396 2.96447H39.396ZM38.1937 0.102711C37.429 -0.64943 36.3988 -1.06616 35.3314 -1.06616V2.93384C35.3591 2.93384 35.3792 2.94498 35.3888 2.95448L38.1937 0.102711Z" fill="#DFF973" mask="url(#path-1-inside-1)"/>
</g>
<defs>
<clipPath id="clip0">
<rect width="39" height="37" fill="white" transform="translate(0 0.823364)"/>
</clipPath>
</defs>
</svg>
