<svg width="245" height="128" viewBox="0 0 245 128" fill="none" xmlns="http://www.w3.org/2000/svg">
<path d="M39.5007 50.0095C39.5007 50.0615 39.5007 50.0961 39.5007 50.1135H40.6187C40.8613 50.1135 41.0693 50.1915 41.2427 50.3475C41.416 50.4861 41.5027 50.6681 41.5027 50.8935C41.5027 51.1188 41.416 51.3095 41.2427 51.4655C41.0693 51.6041 40.8613 51.6735 40.6187 51.6735H35.0547C34.812 51.6735 34.604 51.6041 34.4307 51.4655C34.2573 51.3095 34.1707 51.1188 34.1707 50.8935C34.1707 50.6681 34.2573 50.4861 34.4307 50.3475C34.604 50.1915 34.812 50.1135 35.0547 50.1135H36.1727V50.0095V33.5775C36.1727 33.5255 36.1727 33.4908 36.1727 33.4735H35.0547C34.812 33.4735 34.604 33.4041 34.4307 33.2655C34.2573 33.1095 34.1707 32.9188 34.1707 32.6935C34.1707 32.4681 34.2573 32.2861 34.4307 32.1475C34.604 31.9915 34.812 31.9135 35.0547 31.9135H40.6187C40.8613 31.9135 41.0693 31.9915 41.2427 32.1475C41.416 32.2861 41.5027 32.4681 41.5027 32.6935C41.5027 32.9188 41.416 33.1095 41.2427 33.2655C41.0693 33.4041 40.8613 33.4735 40.6187 33.4735H39.5007V33.5775V50.0095ZM53.7856 50.7895C53.7856 51.0321 53.699 51.2401 53.5256 51.4135C53.3523 51.5868 53.1443 51.6735 52.9016 51.6735H51.4976C51.255 51.6735 51.047 51.5868 50.8736 51.4135C50.7003 51.2401 50.6136 51.0321 50.6136 50.7895V32.7975C50.6136 32.5548 50.7003 32.3468 50.8736 32.1735C51.047 32.0001 51.255 31.9135 51.4976 31.9135H52.9016C53.1443 31.9135 53.3523 32.0001 53.5256 32.1735C53.699 32.3468 53.7856 32.5548 53.7856 32.7975V43.8735L60.4416 38.4915C60.5803 38.3701 60.745 38.3095 60.9356 38.3095C61.0743 38.3095 61.2043 38.3441 61.3256 38.4135L61.6896 38.6215C62.0536 38.8295 62.2356 39.1155 62.2356 39.4795C62.2356 39.7741 62.097 40.0341 61.8196 40.2595L56.0736 44.9135L61.7416 49.8015C62.0363 50.0441 62.1836 50.3215 62.1836 50.6335C62.1836 50.9455 62.0363 51.1795 61.7416 51.3355L61.1176 51.6735C61.0136 51.7255 60.8923 51.7515 60.7536 51.7515C60.5456 51.7515 60.3723 51.6908 60.2336 51.5695L54.3576 46.4995C54.3056 46.4648 54.2623 46.4215 54.2276 46.3695L53.7856 46.7335V50.7895ZM101.593 39.1415C101.732 38.6561 102.053 38.4135 102.555 38.4135H104.089C104.609 38.4135 104.869 38.6301 104.869 39.0635C104.869 39.1155 104.861 39.1675 104.843 39.2195C104.843 39.2715 104.835 39.3235 104.817 39.3755L101.385 50.9195C101.247 51.4048 100.926 51.6475 100.423 51.6475L98.9934 51.6735C98.4907 51.6735 98.17 51.4308 98.0314 50.9455L95.9254 43.7955L93.7934 50.9455C93.6547 51.4308 93.334 51.6735 92.8314 51.6735L91.3494 51.6475C90.864 51.6475 90.5434 51.4135 90.3874 50.9455L86.7214 39.3755C86.704 39.3061 86.6867 39.2455 86.6694 39.1935C86.6694 39.1415 86.6694 39.0895 86.6694 39.0375C86.6694 38.6215 86.9294 38.4135 87.4494 38.4135H88.7494C89.252 38.4135 89.5727 38.6561 89.7114 39.1415L92.2854 48.4755L94.2614 40.1035C94.3827 39.6181 94.6947 39.3755 95.1974 39.3755H96.3934C96.896 39.3755 97.208 39.6181 97.3294 40.1035L99.1494 47.8775L101.593 39.1415ZM117.024 35.1115C117.024 35.3541 116.937 35.5621 116.764 35.7355C116.591 35.9088 116.383 35.9955 116.14 35.9955H114.58C114.337 35.9955 114.129 35.9088 113.956 35.7355C113.783 35.5621 113.696 35.3541 113.696 35.1115V33.5775C113.696 33.3348 113.783 33.1268 113.956 32.9535C114.129 32.7801 114.337 32.6935 114.58 32.6935H116.14C116.383 32.6935 116.591 32.7801 116.764 32.9535C116.937 33.1268 117.024 33.3348 117.024 33.5775V35.1115ZM117.024 50.7895C117.024 51.0321 116.937 51.2401 116.764 51.4135C116.591 51.5868 116.383 51.6735 116.14 51.6735H114.58C114.337 51.6735 114.129 51.5868 113.956 51.4135C113.783 51.2401 113.696 51.0321 113.696 50.7895V39.2975C113.696 39.0548 113.783 38.8468 113.956 38.6735C114.129 38.5001 114.337 38.4135 114.58 38.4135H116.14C116.383 38.4135 116.591 38.5001 116.764 38.6735C116.937 38.8468 117.024 39.0548 117.024 39.2975V50.7895ZM127.407 32.7975C127.407 32.5548 127.52 32.3468 127.745 32.1735C127.988 32.0001 128.274 31.9135 128.603 31.9135H129.461C129.79 31.9135 130.068 32.0001 130.293 32.1735C130.518 32.3468 130.631 32.5548 130.631 32.7975V51.0495C130.631 51.2921 130.518 51.5001 130.293 51.6735C130.068 51.8468 129.79 51.9335 129.461 51.9335H128.603C128.274 51.9335 127.988 51.8468 127.745 51.6735C127.52 51.5001 127.407 51.2921 127.407 51.0495V32.7975ZM168.139 49.9315C167.601 50.4688 166.917 50.9368 166.085 51.3355C165.27 51.7341 164.377 51.9335 163.407 51.9335C161.257 51.9335 159.585 51.3181 158.389 50.0875C157.21 48.8395 156.621 47.1668 156.621 45.0695C156.621 43.7521 156.889 42.5735 157.427 41.5335C157.981 40.4935 158.735 39.6701 159.689 39.0635C160.659 38.4568 161.777 38.1535 163.043 38.1535C164.343 38.1535 165.478 38.4308 166.449 38.9855C167.437 39.5401 168.208 40.3028 168.763 41.2735C169.317 42.2441 169.595 43.3621 169.595 44.6275C169.595 44.8701 169.508 45.0695 169.335 45.2255C169.179 45.3815 168.979 45.4595 168.737 45.4595H159.429C159.498 47.0021 159.905 48.2068 160.651 49.0735C161.396 49.9401 162.315 50.3735 163.407 50.3735C163.961 50.3735 164.403 50.2261 164.733 49.9315C165.062 49.6368 165.391 49.2208 165.721 48.6835C165.911 48.3021 166.206 48.1548 166.605 48.2415L167.567 48.4755C168.104 48.6141 168.373 48.9175 168.373 49.3855C168.373 49.5935 168.295 49.7755 168.139 49.9315ZM163.043 39.7135C162.54 39.7135 162.046 39.9041 161.561 40.2855C161.075 40.6495 160.651 41.1435 160.287 41.7675C159.923 42.3915 159.671 43.1021 159.533 43.8995H166.241C166.137 42.6688 165.799 41.6635 165.227 40.8835C164.655 40.1035 163.927 39.7135 163.043 39.7135ZM188.781 49.9315C188.244 50.4688 187.559 50.9368 186.727 51.3355C185.912 51.7341 185.02 51.9335 184.049 51.9335C181.9 51.9335 180.227 51.3181 179.031 50.0875C177.852 48.8395 177.263 47.1668 177.263 45.0695C177.263 43.7521 177.532 42.5735 178.069 41.5335C178.624 40.4935 179.378 39.6701 180.331 39.0635C181.302 38.4568 182.42 38.1535 183.685 38.1535C184.985 38.1535 186.12 38.4308 187.091 38.9855C188.079 39.5401 188.85 40.3028 189.405 41.2735C189.96 42.2441 190.237 43.3621 190.237 44.6275C190.237 44.8701 190.15 45.0695 189.977 45.2255C189.821 45.3815 189.622 45.4595 189.379 45.4595H180.071C180.14 47.0021 180.548 48.2068 181.293 49.0735C182.038 49.9401 182.957 50.3735 184.049 50.3735C184.604 50.3735 185.046 50.2261 185.375 49.9315C185.704 49.6368 186.034 49.2208 186.363 48.6835C186.554 48.3021 186.848 48.1548 187.247 48.2415L188.209 48.4755C188.746 48.6141 189.015 48.9175 189.015 49.3855C189.015 49.5935 188.937 49.7755 188.781 49.9315ZM183.685 39.7135C183.182 39.7135 182.688 39.9041 182.203 40.2855C181.718 40.6495 181.293 41.1435 180.929 41.7675C180.565 42.3915 180.314 43.1021 180.175 43.8995H186.883C186.779 42.6688 186.441 41.6635 185.869 40.8835C185.297 40.1035 184.569 39.7135 183.685 39.7135ZM210.516 50.7375C210.516 51.0148 210.429 51.2401 210.256 51.4135C210.082 51.5868 209.874 51.6735 209.632 51.6735H208.176C207.933 51.6735 207.725 51.5868 207.552 51.4135C207.378 51.2228 207.292 50.9888 207.292 50.7115C207.292 49.4288 207.292 48.4408 207.292 47.7475C207.292 47.0368 207.283 46.4995 207.266 46.1355C207.266 45.7541 207.266 45.4335 207.266 45.1735C207.266 43.4401 207.075 42.0968 206.694 41.1435C206.33 40.1901 205.723 39.7135 204.874 39.7135C203.799 39.7135 203.01 39.9475 202.508 40.4155C202.005 40.8661 201.754 41.6028 201.754 42.6255V50.7895C201.754 51.0321 201.667 51.2401 201.494 51.4135C201.32 51.5868 201.112 51.6735 200.87 51.6735H199.31C199.067 51.6735 198.859 51.5868 198.686 51.4135C198.512 51.2401 198.426 51.0321 198.426 50.7895V39.0375C198.426 38.7948 198.512 38.5868 198.686 38.4135C198.859 38.2401 199.067 38.1535 199.31 38.1535H200.87C201.251 38.1535 201.52 38.3181 201.676 38.6475C202.629 38.3181 203.695 38.1535 204.874 38.1535C206.104 38.1535 207.084 38.3441 207.812 38.7255C208.54 39.1068 209.094 39.6355 209.476 40.3115C209.857 40.9701 210.117 41.7241 210.256 42.5735C210.394 43.4228 210.472 44.3155 210.49 45.2515C210.507 45.5115 210.516 45.8321 210.516 46.2135C210.516 46.5775 210.516 47.1061 210.516 47.7995C210.516 48.4928 210.516 49.4721 210.516 50.7375ZM73.5087 93.9895C73.5087 94.2321 73.422 94.4401 73.2487 94.6135C73.0753 94.7868 72.8673 94.8735 72.6247 94.8735H71.4547C71.212 94.8735 71.004 94.7868 70.8307 94.6135C70.6573 94.4401 70.5707 94.2321 70.5707 93.9895V77.2975C70.5707 77.0548 70.6573 76.8468 70.8307 76.6735C71.004 76.5001 71.212 76.4135 71.4547 76.4135H72.6247C73.0753 76.4135 73.3613 76.6301 73.4827 77.0635C74.332 76.4568 75.502 76.1535 76.9927 76.1535C78.2233 76.1535 79.3153 76.4655 80.2687 77.0895C81.2393 77.6961 82.002 78.5108 82.5567 79.5335C83.1113 80.5561 83.3887 81.6828 83.3887 82.9135C83.3887 84.1441 83.1287 85.2708 82.6087 86.2935C82.0887 87.3161 81.3607 88.1395 80.4247 88.7635C79.506 89.3701 78.4227 89.6735 77.1747 89.6735C76.4293 89.6735 75.7447 89.5695 75.1207 89.3615C74.514 89.1361 73.9767 88.8241 73.5087 88.4255V93.9895ZM77.0967 88.0875C77.9287 88.0875 78.596 87.8448 79.0987 87.3595C79.6187 86.8568 79.9913 86.2068 80.2167 85.4095C80.4593 84.6121 80.5807 83.7801 80.5807 82.9135C80.5807 82.0468 80.4247 81.2148 80.1127 80.4175C79.8007 79.6201 79.3673 78.9701 78.8127 78.4675C78.2753 77.9648 77.6687 77.7135 76.9927 77.7135C76.022 77.7135 75.1987 78.1728 74.5227 79.0915C73.864 80.0101 73.5347 81.3275 73.5347 83.0435C73.5347 83.9968 73.734 84.8548 74.1327 85.6175C74.5313 86.3801 75.008 86.9868 75.5627 87.4375C76.1173 87.8708 76.6287 88.0875 77.0967 88.0875ZM96.5128 89.9335C95.4035 89.9335 94.4588 89.6475 93.6788 89.0755C92.9161 88.4861 92.3268 87.6801 91.9108 86.6575C91.5121 85.6348 91.3128 84.4648 91.3128 83.1475C91.3128 81.8475 91.5468 80.6688 92.0148 79.6115C92.5001 78.5541 93.1675 77.7135 94.0168 77.0895C94.8661 76.4655 95.8628 76.1535 97.0068 76.1535C98.4975 76.1535 99.7368 76.4741 100.725 77.1155C101.713 77.7395 102.449 78.5541 102.935 79.5595C103.42 80.5648 103.663 81.6308 103.663 82.7575C103.663 82.8268 103.663 82.8961 103.663 82.9655C103.784 84.1268 103.923 85.1841 104.079 86.1375C104.235 87.0735 104.391 87.8535 104.547 88.4775C104.564 88.5295 104.573 88.5988 104.573 88.6855C104.573 89.2055 104.304 89.5088 103.767 89.5955L102.285 89.7775C101.799 89.8295 101.496 89.6301 101.375 89.1795C101.305 88.9021 101.245 88.6161 101.193 88.3215C100.603 88.8241 99.9188 89.2228 99.1388 89.5175C98.3588 89.7948 97.4835 89.9335 96.5128 89.9335ZM96.5128 88.3735C97.3621 88.3735 98.0641 88.0961 98.6188 87.5415C99.1735 86.9695 99.5895 86.2501 99.8668 85.3835C100.161 84.5168 100.309 83.6241 100.309 82.7055C100.309 82.6881 100.309 82.6535 100.309 82.6015C100.291 82.5148 100.283 82.4195 100.283 82.3155C100.283 82.2288 100.283 82.1508 100.283 82.0815C100.231 81.3188 100.075 80.6081 99.8148 79.9495C99.5548 79.2735 99.1908 78.7361 98.7228 78.3375C98.2548 77.9215 97.6828 77.7135 97.0068 77.7135C96.6428 77.7135 96.2788 77.9821 95.9148 78.5195C95.5508 79.0395 95.2475 79.7155 95.0048 80.5475C94.7621 81.3795 94.6408 82.2461 94.6408 83.1475C94.6408 84.0488 94.7361 84.8981 94.9268 85.6955C95.1175 86.4928 95.3601 87.1428 95.6548 87.6455C95.9495 88.1308 96.2355 88.3735 96.5128 88.3735ZM116.577 88.7895C116.577 89.0321 116.49 89.2401 116.317 89.4135C116.143 89.5868 115.935 89.6735 115.693 89.6735H114.289C114.046 89.6735 113.838 89.5868 113.665 89.4135C113.491 89.2401 113.405 89.0321 113.405 88.7895V70.7975C113.405 70.5548 113.491 70.3468 113.665 70.1735C113.838 70.0001 114.046 69.9135 114.289 69.9135H115.693C115.935 69.9135 116.143 70.0001 116.317 70.1735C116.49 70.3468 116.577 70.5548 116.577 70.7975V81.8735L123.233 76.4915C123.371 76.3701 123.536 76.3095 123.727 76.3095C123.865 76.3095 123.995 76.3441 124.117 76.4135L124.481 76.6215C124.845 76.8295 125.027 77.1155 125.027 77.4795C125.027 77.7741 124.888 78.0341 124.611 78.2595L118.865 82.9135L124.533 87.8015C124.827 88.0441 124.975 88.3215 124.975 88.6335C124.975 88.9455 124.827 89.1795 124.533 89.3355L123.909 89.6735C123.805 89.7255 123.683 89.7515 123.545 89.7515C123.337 89.7515 123.163 89.6908 123.025 89.5695L117.149 84.4995C117.097 84.4648 117.053 84.4215 117.019 84.3695L116.577 84.7335V88.7895ZM136.508 88.7895C136.508 89.0321 136.422 89.2401 136.248 89.4135C136.075 89.5868 135.867 89.6735 135.624 89.6735H134.22C133.978 89.6735 133.77 89.5868 133.596 89.4135C133.423 89.2401 133.336 89.0321 133.336 88.7895V70.7975C133.336 70.5548 133.423 70.3468 133.596 70.1735C133.77 70.0001 133.978 69.9135 134.22 69.9135H135.624C135.867 69.9135 136.075 70.0001 136.248 70.1735C136.422 70.3468 136.508 70.5548 136.508 70.7975V81.8735L143.164 76.4915C143.303 76.3701 143.468 76.3095 143.658 76.3095C143.797 76.3095 143.927 76.3441 144.048 76.4135L144.412 76.6215C144.776 76.8295 144.958 77.1155 144.958 77.4795C144.958 77.7741 144.82 78.0341 144.542 78.2595L138.796 82.9135L144.464 87.8015C144.759 88.0441 144.906 88.3215 144.906 88.6335C144.906 88.9455 144.759 89.1795 144.464 89.3355L143.84 89.6735C143.736 89.7255 143.615 89.7515 143.476 89.7515C143.268 89.7515 143.095 89.6908 142.956 89.5695L137.08 84.4995C137.028 84.4648 136.985 84.4215 136.95 84.3695L136.508 84.7335V88.7895ZM163.746 87.9315C163.209 88.4688 162.524 88.9368 161.692 89.3355C160.877 89.7341 159.985 89.9335 159.014 89.9335C156.865 89.9335 155.192 89.3181 153.996 88.0875C152.817 86.8395 152.228 85.1668 152.228 83.0695C152.228 81.7521 152.497 80.5735 153.034 79.5335C153.589 78.4935 154.343 77.6701 155.296 77.0635C156.267 76.4568 157.385 76.1535 158.65 76.1535C159.95 76.1535 161.085 76.4308 162.056 76.9855C163.044 77.5401 163.815 78.3028 164.37 79.2735C164.925 80.2441 165.202 81.3621 165.202 82.6275C165.202 82.8701 165.115 83.0695 164.942 83.2255C164.786 83.3815 164.587 83.4595 164.344 83.4595H155.036C155.105 85.0021 155.513 86.2068 156.258 87.0735C157.003 87.9401 157.922 88.3735 159.014 88.3735C159.569 88.3735 160.011 88.2261 160.34 87.9315C160.669 87.6368 160.999 87.2208 161.328 86.6835C161.519 86.3021 161.813 86.1548 162.212 86.2415L163.174 86.4755C163.711 86.6141 163.98 86.9175 163.98 87.3855C163.98 87.5935 163.902 87.7755 163.746 87.9315ZM158.65 77.7135C158.147 77.7135 157.653 77.9041 157.168 78.2855C156.683 78.6495 156.258 79.1435 155.894 79.7675C155.53 80.3915 155.279 81.1021 155.14 81.8995H161.848C161.744 80.6688 161.406 79.6635 160.834 78.8835C160.262 78.1035 159.534 77.7135 158.65 77.7135ZM178.479 89.0755C178.479 89.6475 178.193 89.9335 177.621 89.9335H176.269C175.697 89.9335 175.411 89.6475 175.411 89.0755V77.9735H172.941C172.369 77.9735 172.083 77.7135 172.083 77.1935C172.083 76.6735 172.369 76.4135 172.941 76.4135H175.411V70.7715C175.411 70.1995 175.697 69.9135 176.269 69.9135H177.621C178.193 69.9135 178.479 70.1995 178.479 70.7715V76.4135H180.949C181.521 76.4135 181.807 76.6735 181.807 77.1935C181.807 77.7135 181.521 77.9735 180.949 77.9735H178.479V89.0755Z" fill="#CFF431"/>
<path d="M232.799 20.1599H12.1736V108.462H232.799V20.1599Z" stroke="#CFF431" stroke-width="2" stroke-miterlimit="10"/>
<path d="M231.58 109.329L225.679 121.454L227.552 108.491L220.328 121.454L223.271 108.491L214.442 121.454L218.455 108.491L209.76 120.374L213.372 108.491L205.078 120.374L208.824 108.491L199.995 120.374L203.874 108.491L193.306 121.454L198.657 108.491L187.955 120.374L192.503 108.491L182.069 120.374L186.216 108.491L175.247 120.374L180.063 108.491L168.023 120.374L172.304 108.491L160.666 120.374L165.749 108.491L154.512 120.374L159.863 108.491L148.894 120.374L154.512 108.491L142.072 121.454L147.556 108.491L134.848 121.454L142.072 108.491" stroke="#CFF431" stroke-width="2"/>
<path d="M49.8824 108.491L45.2446 120.97L55.0487 108.491L51.4457 120.374L62.0048 108.491L56.3864 120.374L67.3557 108.491L62.0048 120.374L73.2416 108.491L68.1583 120.374L79.7965 108.491L75.5158 120.374L87.5552 108.491L82.7394 120.374L93.7087 108.491L89.5617 120.374L99.9959 108.491L95.4478 120.374L106.149 108.491L100.799 121.454L111.367 108.491L107.487 120.374L116.316 108.491L112.57 120.374L120.864 108.491L117.253 120.374L125.948 108.491L121.935 121.454L130.764 108.491L127.82 121.454L135.044 108.491L133.171 121.454L141.51 108.491" stroke="#CFF431" stroke-width="2"/>
<path d="M3.69598 120.946L12.1564 96.9997L3.43506 108.676L12.1564 92.2094L3.69598 97.9536L12.1564 83.7844L3.43506 89.5287L12.1564 74.8489L3.69598 79.4443L12.1564 68.3387L3.69598 71.147L12.1564 61.1903H3.88233L12.1564 51.1059L3.43506 49.4464L12.1564 40.5108L3.88233 38.596L12.1564 31.1923L3.69598 26.2139L12.1564 21.1079" stroke="#CFF431" stroke-width="2"/>
<path d="M3.42969 121.55L14.1198 109.317L10.0407 121.029L19.3314 109.317L15.5065 121.55L24.2758 109.317L20.9723 121.55L28.2911 110.705L26.2819 121.029L33.8972 109.317L29.8883 121.55L37.9982 110.705L35.756 121.029L42.5231 110.705L41.2738 121.029L49.4436 109.317" stroke="#CFF431" stroke-width="2"/>
</svg>
