<svg width="211" height="160" viewBox="0 0 211 160" fill="none" xmlns="http://www.w3.org/2000/svg">
<path d="M16.0702 23.2617H14.8282C14.5368 23.2617 14.3068 23.2081 14.1382 23.1007C13.9695 22.9781 13.8085 22.7941 13.6552 22.5487L7.00816 12.1527L5.85816 10.2207H5.81216V21.5367H7.58316C7.78249 21.5367 7.88216 21.6287 7.88216 21.8127V22.9857C7.88216 23.1697 7.78249 23.2617 7.58316 23.2617H2.06316C1.86382 23.2617 1.76416 23.1697 1.76416 22.9857V21.8127C1.76416 21.6287 1.86382 21.5367 2.06316 21.5367H3.81116V8.47272H2.06316C1.86382 8.47272 1.76416 8.38072 1.76416 8.19672V7.02372C1.76416 6.83972 1.86382 6.74772 2.06316 6.74772H5.28316C5.72782 6.74772 6.11882 7.00838 6.45616 7.52972L13.0112 17.7877L14.3222 20.0187H14.3682V8.47272H12.5972C12.4132 8.47272 12.3212 8.38072 12.3212 8.19672V7.02372C12.3212 6.83972 12.4132 6.74772 12.5972 6.74772H18.1402C18.3242 6.74772 18.4162 6.83972 18.4162 7.02372V8.19672C18.4162 8.38072 18.3242 8.47272 18.1402 8.47272H16.3692V22.9857C16.3692 23.1697 16.2695 23.2617 16.0702 23.2617ZM24.2623 23.2617H19.8693C19.67 23.2617 19.5703 23.1697 19.5703 22.9857V21.9967C19.5703 21.8127 19.67 21.7207 19.8693 21.7207H21.1343V13.4867H19.8693C19.67 13.4867 19.5703 13.3947 19.5703 13.2107V12.2217C19.5703 12.0377 19.67 11.9457 19.8693 11.9457H22.7673C22.9513 11.9457 23.0433 12.0377 23.0433 12.2217V21.7207H24.2623C24.4616 21.7207 24.5613 21.8127 24.5613 21.9967V22.9857C24.5613 23.1697 24.4616 23.2617 24.2623 23.2617ZM22.9513 8.54172C23.212 8.80238 23.3423 9.10905 23.3423 9.46172C23.3423 9.81438 23.212 10.1134 22.9513 10.3587C22.706 10.6041 22.407 10.7267 22.0543 10.7267C21.7016 10.7267 21.395 10.6041 21.1343 10.3587C20.889 10.1134 20.7663 9.81438 20.7663 9.46172C20.7663 9.10905 20.889 8.80238 21.1343 8.54172C21.395 8.28105 21.7016 8.15072 22.0543 8.15072C22.407 8.15072 22.706 8.28105 22.9513 8.54172ZM36.274 17.8337H27.994C28.0554 19.1064 28.454 20.0877 29.19 20.7777C29.9414 21.4677 30.7847 21.8127 31.72 21.8127C32.6554 21.8127 33.4527 21.6134 34.112 21.2147C34.7867 20.8161 35.239 20.4251 35.469 20.0417C35.5917 19.8884 35.7297 19.8654 35.883 19.9727L36.504 20.5937C36.596 20.6857 36.642 20.7701 36.642 20.8467C36.642 20.9081 36.6037 20.9924 36.527 21.0997C36.4657 21.2071 36.3277 21.3757 36.113 21.6057C35.8984 21.8357 35.5917 22.0964 35.193 22.3877C34.8097 22.6791 34.3037 22.9244 33.675 23.1237C33.0617 23.3231 32.4024 23.4227 31.697 23.4227C30.087 23.4227 28.7377 22.8937 27.649 21.8357C26.5757 20.7777 26.039 19.3594 26.039 17.5807C26.039 15.7867 26.5757 14.3761 27.649 13.3487C28.7224 12.3061 30.0334 11.7847 31.582 11.7847C33.146 11.7847 34.3727 12.2907 35.262 13.3027C36.1514 14.2994 36.596 15.6487 36.596 17.3507C36.596 17.4121 36.596 17.4734 36.596 17.5347C36.596 17.7341 36.4887 17.8337 36.274 17.8337ZM34.687 16.4307C34.641 15.4801 34.342 14.7211 33.79 14.1537C33.238 13.5864 32.502 13.3027 31.582 13.3027C30.662 13.3027 29.8724 13.5634 29.213 14.0847C28.5537 14.6061 28.1627 15.3881 28.04 16.4307H34.687ZM45.9847 22.0887C46.046 22.1501 46.0767 22.2191 46.0767 22.2957C46.0767 22.3571 46.0307 22.4337 45.9387 22.5257C45.264 23.1237 44.413 23.4227 43.3857 23.4227C42.3737 23.4227 41.538 23.0931 40.8787 22.4337C40.2347 21.7591 39.9127 20.7854 39.9127 19.5127V13.4867H38.6247C38.41 13.4867 38.3027 13.3871 38.3027 13.1877V12.2447C38.3027 12.0454 38.41 11.9457 38.6247 11.9457H39.9127V9.62272C39.9127 9.40805 40.02 9.30072 40.2347 9.30072H41.5227C41.722 9.30072 41.8217 9.40805 41.8217 9.62272V11.9457H44.7427C44.9574 11.9457 45.0647 12.0454 45.0647 12.2447V13.1877C45.0647 13.3871 44.9574 13.4867 44.7427 13.4867H41.8217V19.4667C41.8217 20.2334 41.9904 20.8161 42.3277 21.2147C42.6804 21.5981 43.1404 21.7897 43.7077 21.7897C44.2904 21.7897 44.7274 21.6441 45.0187 21.3527C45.172 21.2147 45.31 21.2224 45.4327 21.3757L45.9847 22.0887ZM66.0371 23.2617H64.0361C63.3768 23.2617 63.0471 22.9397 63.0471 22.2957V21.1227H63.0011C61.8818 22.6714 60.3868 23.4457 58.5161 23.4457C57.4121 23.4457 56.5074 23.1621 55.8021 22.5947C55.0968 22.0121 54.7441 21.2301 54.7441 20.2487C54.7441 18.9914 55.2884 18.0714 56.3771 17.4887C57.4811 16.8907 58.9914 16.5917 60.9081 16.5917H62.8401V16.3157C62.8401 14.3991 61.8434 13.4407 59.8501 13.4407C58.9148 13.4407 58.2401 13.5327 57.8261 13.7167C57.4121 13.8854 57.1131 14.0234 56.9291 14.1307C56.7604 14.2381 56.6301 14.3224 56.5381 14.3837C56.3081 14.5677 56.1394 14.5831 56.0321 14.4297L55.3881 13.6247C55.2808 13.5021 55.2961 13.3794 55.4341 13.2567C55.6948 12.9194 56.2314 12.5897 57.0441 12.2677C57.8568 11.9457 58.8151 11.7847 59.9191 11.7847C63.1391 11.7847 64.7491 13.3181 64.7491 16.3847V21.7207H66.0371C66.2211 21.7207 66.3131 21.8127 66.3131 21.9967V22.9857C66.3131 23.1697 66.2211 23.2617 66.0371 23.2617ZM62.8401 17.9717H61.0231C60.1338 17.9717 59.3978 18.0177 58.8151 18.1097C58.2324 18.2017 57.7341 18.4011 57.3201 18.7077C56.9214 19.0144 56.7221 19.4361 56.7221 19.9727C56.7221 20.5094 56.9368 20.9541 57.3661 21.3067C57.8108 21.6441 58.3858 21.8127 59.0911 21.8127C60.5784 21.8127 61.8281 21.1534 62.8401 19.8347V17.9717ZM72.6431 23.2617H68.2501C68.0508 23.2617 67.9511 23.1697 67.9511 22.9857V21.9967C67.9511 21.8127 68.0508 21.7207 68.2501 21.7207H69.5151V8.28872H68.2501C68.0508 8.28872 67.9511 8.19672 67.9511 8.01272V7.02372C67.9511 6.83972 68.0508 6.74772 68.2501 6.74772H70.8031C71.2171 6.74772 71.4241 6.93938 71.4241 7.32272V21.7207H72.6431C72.8425 21.7207 72.9421 21.8127 72.9421 21.9967V22.9857C72.9421 23.1697 72.8425 23.2617 72.6431 23.2617ZM79.3814 23.2617H74.9884C74.7891 23.2617 74.6894 23.1697 74.6894 22.9857V21.9967C74.6894 21.8127 74.7891 21.7207 74.9884 21.7207H76.2534V8.28872H74.9884C74.7891 8.28872 74.6894 8.19672 74.6894 8.01272V7.02372C74.6894 6.83972 74.7891 6.74772 74.9884 6.74772H77.5414C77.9554 6.74772 78.1624 6.93938 78.1624 7.32272V21.7207H79.3814C79.5808 21.7207 79.6804 21.8127 79.6804 21.9967V22.9857C79.6804 23.1697 79.5808 23.2617 79.3814 23.2617ZM91.5279 17.8337H83.2479C83.3093 19.1064 83.7079 20.0877 84.4439 20.7777C85.1953 21.4677 86.0386 21.8127 86.9739 21.8127C87.9093 21.8127 88.7066 21.6134 89.3659 21.2147C90.0406 20.8161 90.4929 20.4251 90.7229 20.0417C90.8456 19.8884 90.9836 19.8654 91.1369 19.9727L91.7579 20.5937C91.8499 20.6857 91.8959 20.7701 91.8959 20.8467C91.8959 20.9081 91.8576 20.9924 91.7809 21.0997C91.7196 21.2071 91.5816 21.3757 91.3669 21.6057C91.1523 21.8357 90.8456 22.0964 90.4469 22.3877C90.0636 22.6791 89.5576 22.9244 88.9289 23.1237C88.3156 23.3231 87.6563 23.4227 86.9509 23.4227C85.3409 23.4227 83.9916 22.8937 82.9029 21.8357C81.8296 20.7777 81.2929 19.3594 81.2929 17.5807C81.2929 15.7867 81.8296 14.3761 82.9029 13.3487C83.9763 12.3061 85.2873 11.7847 86.8359 11.7847C88.3999 11.7847 89.6266 12.2907 90.5159 13.3027C91.4053 14.2994 91.8499 15.6487 91.8499 17.3507C91.8499 17.4121 91.8499 17.4734 91.8499 17.5347C91.8499 17.7341 91.7426 17.8337 91.5279 17.8337ZM89.9409 16.4307C89.8949 15.4801 89.5959 14.7211 89.0439 14.1537C88.4919 13.5864 87.7559 13.3027 86.8359 13.3027C85.9159 13.3027 85.1263 13.5634 84.4669 14.0847C83.8076 14.6061 83.4166 15.3881 83.2939 16.4307H89.9409ZM98.7749 23.4227C97.7476 23.4227 96.9272 23.2311 96.3139 22.8477C95.7006 22.4644 95.3172 22.1041 95.1639 21.7667H95.1179C95.1486 22.5181 95.1639 22.9167 95.1639 22.9627C95.1639 23.1621 95.0566 23.2617 94.8419 23.2617H94.0599C93.8606 23.2617 93.7609 23.1621 93.7609 22.9627V19.5127C93.7609 19.3134 93.8606 19.2137 94.0599 19.2137H94.9569C95.1716 19.2137 95.2789 19.3134 95.2789 19.5127V19.9727C95.4322 20.4327 95.7542 20.8544 96.2449 21.2377C96.8276 21.6977 97.5559 21.9277 98.4299 21.9277C100.147 21.9277 101.006 21.3297 101.006 20.1337C101.006 19.7197 100.768 19.3901 100.293 19.1447C99.8176 18.8841 99.2349 18.6694 98.5449 18.5007C97.8702 18.3321 97.1956 18.1404 96.5209 17.9257C95.8462 17.7111 95.2712 17.3661 94.7959 16.8907C94.3206 16.4001 94.0829 15.7867 94.0829 15.0507C94.0829 14.0541 94.4432 13.2644 95.1639 12.6817C95.8846 12.0837 96.8046 11.7847 97.9239 11.7847C99.4419 11.7847 100.531 12.2294 101.19 13.1187H101.236C101.205 12.5667 101.19 12.2831 101.19 12.2677C101.19 12.0684 101.29 11.9687 101.489 11.9687H102.225C102.424 11.9687 102.524 12.0684 102.524 12.2677V15.4647C102.524 15.6641 102.424 15.7637 102.225 15.7637H101.328C101.113 15.7637 101.006 15.6641 101.006 15.4647V15.1427C101.006 14.7287 100.761 14.3224 100.27 13.9237C99.7946 13.5097 99.1736 13.3027 98.4069 13.3027C97.6402 13.3027 97.0422 13.4637 96.6129 13.7857C96.1836 14.1077 95.9689 14.5294 95.9689 15.0507C95.9689 15.5567 96.2066 15.9554 96.6819 16.2467C97.1726 16.5227 97.7629 16.7451 98.4529 16.9137C99.1429 17.0671 99.8329 17.2434 100.523 17.4427C101.213 17.6421 101.796 17.9717 102.271 18.4317C102.762 18.8917 103.007 19.5281 103.007 20.3407C103.007 21.1534 102.654 21.8741 101.949 22.5027C101.259 23.1161 100.201 23.4227 98.7749 23.4227ZM116.756 23.2617H112.363C112.164 23.2617 112.064 23.1697 112.064 22.9857V21.9967C112.064 21.8127 112.164 21.7207 112.363 21.7207H113.628V13.4867H112.363C112.164 13.4867 112.064 13.3947 112.064 13.2107V12.2217C112.064 12.0377 112.164 11.9457 112.363 11.9457H115.261C115.445 11.9457 115.537 12.0377 115.537 12.2217V21.7207H116.756C116.956 21.7207 117.055 21.8127 117.055 21.9967V22.9857C117.055 23.1697 116.956 23.2617 116.756 23.2617ZM115.445 8.54172C115.706 8.80238 115.836 9.10905 115.836 9.46172C115.836 9.81438 115.706 10.1134 115.445 10.3587C115.2 10.6041 114.901 10.7267 114.548 10.7267C114.196 10.7267 113.889 10.6041 113.628 10.3587C113.383 10.1134 113.26 9.81438 113.26 9.46172C113.26 9.10905 113.383 8.80238 113.628 8.54172C113.889 8.28105 114.196 8.15072 114.548 8.15072C114.901 8.15072 115.2 8.28105 115.445 8.54172ZM131.039 23.2617H128.854C128.194 23.2617 127.865 22.9397 127.865 22.2957V16.2467C127.865 15.3574 127.65 14.6674 127.221 14.1767C126.791 13.6861 126.163 13.4407 125.335 13.4407C124.154 13.4407 123.234 13.9237 122.575 14.8897C122.498 14.9817 122.398 15.1504 122.276 15.3957V21.7207H123.495C123.694 21.7207 123.794 21.8127 123.794 21.9967V22.9857C123.794 23.1697 123.694 23.2617 123.495 23.2617H119.102C118.902 23.2617 118.803 23.1697 118.803 22.9857V21.9967C118.803 21.8127 118.902 21.7207 119.102 21.7207H120.367V13.4867H119.102C118.902 13.4867 118.803 13.3947 118.803 13.2107V12.2217C118.803 12.0377 118.902 11.9457 119.102 11.9457H121.793C121.992 11.9457 122.092 12.0377 122.092 12.2217L122.046 13.7857H122.115C122.912 12.4517 124.146 11.7847 125.818 11.7847C127.044 11.7847 128.003 12.1451 128.693 12.8657C129.383 13.5864 129.735 14.5601 129.751 15.7867V21.7207H131.039C131.238 21.7207 131.338 21.8127 131.338 21.9967V22.9857C131.338 23.1697 131.238 23.2617 131.039 23.2617ZM152.534 23.2617H150.349C149.689 23.2617 149.36 22.9397 149.36 22.2957V16.2467C149.36 15.3574 149.145 14.6674 148.716 14.1767C148.286 13.6861 147.658 13.4407 146.83 13.4407C146.201 13.4407 145.718 13.5404 145.381 13.7397C145.059 13.9237 144.813 14.0924 144.645 14.2457C144.476 14.3837 144.338 14.5217 144.231 14.6597C144.047 14.9051 143.893 15.1581 143.771 15.4187V21.7207H144.99C145.189 21.7207 145.289 21.8127 145.289 21.9967V22.9857C145.289 23.1697 145.189 23.2617 144.99 23.2617H140.597C140.397 23.2617 140.298 23.1697 140.298 22.9857V21.9967C140.298 21.8127 140.397 21.7207 140.597 21.7207H141.862V8.28872H140.597C140.397 8.28872 140.298 8.19672 140.298 8.01272V7.02372C140.298 6.83972 140.397 6.74772 140.597 6.74772H143.495C143.679 6.74772 143.771 6.83972 143.771 7.02372V12.1527C143.771 12.6587 143.74 13.1264 143.679 13.5557H143.725C144.476 12.3751 145.672 11.7847 147.313 11.7847C148.539 11.7847 149.498 12.1451 150.188 12.8657C150.878 13.5864 151.23 14.5601 151.246 15.7867V21.7207H152.534C152.733 21.7207 152.833 21.8127 152.833 21.9967V22.9857C152.833 23.1697 152.733 23.2617 152.534 23.2617ZM165.779 23.2617H163.778C163.118 23.2617 162.789 22.9397 162.789 22.2957V21.4447H162.72C162.091 22.7634 160.895 23.4227 159.132 23.4227C157.905 23.4227 156.931 23.0624 156.211 22.3417C155.505 21.6057 155.145 20.6321 155.13 19.4207V13.4867H153.819C153.635 13.4867 153.543 13.3947 153.543 13.2107V12.2217C153.543 12.0377 153.635 11.9457 153.819 11.9457H156.027C156.686 11.9457 157.016 12.2677 157.016 12.9117V18.9607C157.016 19.8501 157.23 20.5401 157.66 21.0307C158.089 21.5214 158.718 21.7667 159.546 21.7667C160.665 21.7667 161.547 21.3527 162.191 20.5247C162.467 20.1721 162.605 19.9344 162.605 19.8117V13.4867H161.363C161.179 13.4867 161.087 13.3947 161.087 13.2107V12.2217C161.087 12.0377 161.179 11.9457 161.363 11.9457H164.215C164.399 11.9457 164.491 12.0377 164.491 12.2217V21.7207H165.779C165.978 21.7207 166.078 21.8127 166.078 21.9967V22.9857C166.078 23.1697 165.978 23.2617 165.779 23.2617ZM172.527 23.2617H168.134C167.935 23.2617 167.835 23.1697 167.835 22.9857V21.9967C167.835 21.8127 167.935 21.7207 168.134 21.7207H169.399V13.4867H168.134C167.935 13.4867 167.835 13.3947 167.835 13.2107V12.2217C167.835 12.0377 167.935 11.9457 168.134 11.9457H171.032C171.216 11.9457 171.308 12.0377 171.308 12.2217V21.7207H172.527C172.726 21.7207 172.826 21.8127 172.826 21.9967V22.9857C172.826 23.1697 172.726 23.2617 172.527 23.2617ZM171.216 8.54172C171.477 8.80238 171.607 9.10905 171.607 9.46172C171.607 9.81438 171.477 10.1134 171.216 10.3587C170.971 10.6041 170.672 10.7267 170.319 10.7267C169.966 10.7267 169.66 10.6041 169.399 10.3587C169.154 10.1134 169.031 9.81438 169.031 9.46172C169.031 9.10905 169.154 8.80238 169.399 8.54172C169.66 8.28105 169.966 8.15072 170.319 8.15072C170.672 8.15072 170.971 8.28105 171.216 8.54172ZM179.612 23.4227C178.584 23.4227 177.764 23.2311 177.151 22.8477C176.537 22.4644 176.154 22.1041 176.001 21.7667H175.955C175.985 22.5181 176.001 22.9167 176.001 22.9627C176.001 23.1621 175.893 23.2617 175.679 23.2617H174.897C174.697 23.2617 174.598 23.1621 174.598 22.9627V19.5127C174.598 19.3134 174.697 19.2137 174.897 19.2137H175.794C176.008 19.2137 176.116 19.3134 176.116 19.5127V19.9727C176.269 20.4327 176.591 20.8544 177.082 21.2377C177.664 21.6977 178.393 21.9277 179.267 21.9277C180.984 21.9277 181.843 21.3297 181.843 20.1337C181.843 19.7197 181.605 19.3901 181.13 19.1447C180.654 18.8841 180.072 18.6694 179.382 18.5007C178.707 18.3321 178.032 18.1404 177.358 17.9257C176.683 17.7111 176.108 17.3661 175.633 16.8907C175.157 16.4001 174.92 15.7867 174.92 15.0507C174.92 14.0541 175.28 13.2644 176.001 12.6817C176.721 12.0837 177.641 11.7847 178.761 11.7847C180.279 11.7847 181.367 12.2294 182.027 13.1187H182.073C182.042 12.5667 182.027 12.2831 182.027 12.2677C182.027 12.0684 182.126 11.9687 182.326 11.9687H183.062C183.261 11.9687 183.361 12.0684 183.361 12.2677V15.4647C183.361 15.6641 183.261 15.7637 183.062 15.7637H182.165C181.95 15.7637 181.843 15.6641 181.843 15.4647V15.1427C181.843 14.7287 181.597 14.3224 181.107 13.9237C180.631 13.5097 180.01 13.3027 179.244 13.3027C178.477 13.3027 177.879 13.4637 177.45 13.7857C177.02 14.1077 176.806 14.5294 176.806 15.0507C176.806 15.5567 177.043 15.9554 177.519 16.2467C178.009 16.5227 178.6 16.7451 179.29 16.9137C179.98 17.0671 180.67 17.2434 181.36 17.4427C182.05 17.6421 182.632 17.9717 183.108 18.4317C183.598 18.8917 183.844 19.5281 183.844 20.3407C183.844 21.1534 183.491 21.8741 182.786 22.5027C182.096 23.1161 181.038 23.4227 179.612 23.4227ZM191.786 20.3407H190.199C190 20.3407 189.9 20.2487 189.9 20.0647C189.9 19.0987 190.084 18.2401 190.452 17.4887C190.82 16.7374 191.265 16.1317 191.786 15.6717C192.308 15.2117 192.829 14.7824 193.35 14.3837C194.608 13.4484 195.236 12.5054 195.236 11.5547C195.236 10.5887 194.899 9.82972 194.224 9.27772C193.55 8.72572 192.607 8.44972 191.395 8.44972C190.199 8.44972 189.287 8.75638 188.658 9.36972C188.045 9.98305 187.731 10.7881 187.715 11.7847C187.715 11.9687 187.623 12.0607 187.439 12.0607H185.99C185.791 12.0607 185.691 11.9687 185.691 11.7847C185.691 10.3434 186.159 9.12438 187.094 8.12772C188.045 7.11572 189.471 6.60972 191.372 6.60972C193.274 6.60972 194.738 7.05438 195.765 7.94372C196.808 8.83305 197.329 9.95238 197.329 11.3017C197.329 12.0377 197.199 12.7047 196.938 13.3027C196.678 13.8854 196.356 14.3531 195.972 14.7057C195.589 15.0584 195.167 15.4341 194.707 15.8327C194.247 16.2161 193.826 16.5764 193.442 16.9137C193.059 17.2511 192.737 17.6957 192.476 18.2477C192.216 18.7844 192.085 19.3901 192.085 20.0647C192.085 20.2487 191.986 20.3407 191.786 20.3407ZM191.878 22.3187C192.108 22.5487 192.223 22.8324 192.223 23.1697C192.223 23.5071 192.108 23.7907 191.878 24.0207C191.648 24.2661 191.357 24.3887 191.004 24.3887C190.667 24.3887 190.376 24.2661 190.13 24.0207C189.9 23.7907 189.785 23.5071 189.785 23.1697C189.785 22.8324 189.9 22.5487 190.13 22.3187C190.376 22.0734 190.667 21.9507 191.004 21.9507C191.357 21.9507 191.648 22.0734 191.878 22.3187ZM16.8062 52.2617H14.8052C14.2532 52.2617 13.7932 51.8937 13.4252 51.1577L11.2632 46.7647C11.1405 46.5194 11.0255 46.3277 10.9182 46.1897C10.8262 46.0517 10.6115 45.9137 10.2742 45.7757C9.95216 45.6377 9.54582 45.5687 9.05516 45.5687H5.81216V50.5367H7.92816C8.12749 50.5367 8.22716 50.6287 8.22716 50.8127V51.9857C8.22716 52.1697 8.12749 52.2617 7.92816 52.2617H2.06316C1.86382 52.2617 1.76416 52.1697 1.76416 51.9857V50.8127C1.76416 50.6287 1.86382 50.5367 2.06316 50.5367H3.81116V37.4727H2.06316C1.86382 37.4727 1.76416 37.3807 1.76416 37.1967V36.0237C1.76416 35.8397 1.86382 35.7477 2.06316 35.7477H7.21516C7.39916 35.7477 7.49116 35.8397 7.49116 36.0237V37.1967C7.49116 37.3807 7.39916 37.4727 7.21516 37.4727H5.81216V43.9357H8.22716C9.85249 43.9357 11.0562 43.4604 11.8382 42.5097C12.6355 41.5437 13.0342 39.8647 13.0342 37.4727H11.4702C11.2862 37.4727 11.1942 37.3807 11.1942 37.1967V36.0237C11.1942 35.8397 11.2862 35.7477 11.4702 35.7477H16.5992C16.7832 35.7477 16.8752 35.8397 16.8752 36.0237V37.1967C16.8752 37.3807 16.7832 37.4727 16.5992 37.4727H15.0122C15.0122 41.168 13.9695 43.583 11.8842 44.7177C12.2368 44.8864 12.5128 45.1087 12.7122 45.3847C12.9115 45.6454 13.1415 46.0364 13.4022 46.5577L15.4032 50.5367H16.8062C16.9902 50.5367 17.0822 50.6287 17.0822 50.8127V51.9857C17.0822 52.1697 16.9902 52.2617 16.8062 52.2617ZM27.4602 50.8127C26.3869 51.886 25.0145 52.4227 23.3432 52.4227C21.6719 52.4227 20.2995 51.8937 19.2262 50.8357C18.1529 49.7624 17.6162 48.344 17.6162 46.5807C17.6162 44.802 18.1605 43.3914 19.2492 42.3487C20.3379 41.306 21.7025 40.7847 23.3432 40.7847C24.9992 40.7847 26.3639 41.3137 27.4372 42.3717C28.5259 43.4144 29.0702 44.8174 29.0702 46.5807C29.0702 48.3287 28.5335 49.7394 27.4602 50.8127ZM19.5482 46.5807C19.5482 47.838 19.9162 48.8577 20.6522 49.6397C21.3882 50.4217 22.2852 50.8127 23.3432 50.8127C24.4165 50.8127 25.3212 50.4217 26.0572 49.6397C26.7932 48.8577 27.1612 47.838 27.1612 46.5807C27.1612 45.3234 26.7855 44.3114 26.0342 43.5447C25.2982 42.778 24.4089 42.3947 23.3662 42.3947C22.3235 42.3947 21.4265 42.778 20.6752 43.5447C19.9239 44.3114 19.5482 45.3234 19.5482 46.5807ZM40.5774 50.8127C39.504 51.886 38.1317 52.4227 36.4604 52.4227C34.789 52.4227 33.4167 51.8937 32.3434 50.8357C31.27 49.7624 30.7334 48.344 30.7334 46.5807C30.7334 44.802 31.2777 43.3914 32.3664 42.3487C33.455 41.306 34.8197 40.7847 36.4604 40.7847C38.1164 40.7847 39.481 41.3137 40.5544 42.3717C41.643 43.4144 42.1874 44.8174 42.1874 46.5807C42.1874 48.3287 41.6507 49.7394 40.5774 50.8127ZM32.6654 46.5807C32.6654 47.838 33.0334 48.8577 33.7694 49.6397C34.5054 50.4217 35.4024 50.8127 36.4604 50.8127C37.5337 50.8127 38.4384 50.4217 39.1744 49.6397C39.9104 48.8577 40.2784 47.838 40.2784 46.5807C40.2784 45.3234 39.9027 44.3114 39.1514 43.5447C38.4154 42.778 37.526 42.3947 36.4834 42.3947C35.4407 42.3947 34.5437 42.778 33.7924 43.5447C33.041 44.3114 32.6654 45.3234 32.6654 46.5807ZM48.6603 57.4367H44.0373C43.8379 57.4367 43.7383 57.3447 43.7383 57.1607V56.1717C43.7383 55.9877 43.8379 55.8957 44.0373 55.8957H45.3253V42.4867H44.0833C43.8839 42.4867 43.7843 42.3947 43.7843 42.2107V41.2217C43.7843 41.0377 43.8839 40.9457 44.0833 40.9457H46.7743C46.9736 40.9457 47.0733 41.0377 47.0733 41.2217L47.0503 43.0387H47.0733C47.3646 42.41 47.8323 41.881 48.4763 41.4517C49.1356 41.007 49.9406 40.7847 50.8913 40.7847C52.4399 40.7847 53.6896 41.3137 54.6403 42.3717C55.5909 43.4144 56.0663 44.8097 56.0663 46.5577C56.0663 48.2904 55.5986 49.701 54.6633 50.7897C53.7279 51.8784 52.4783 52.4227 50.9143 52.4227C49.9636 52.4227 49.1663 52.208 48.5223 51.7787C47.8936 51.334 47.4413 50.7974 47.1653 50.1687H47.0963C47.1423 50.6594 47.1653 51.012 47.1653 51.2267V55.8957H48.6603C48.8596 55.8957 48.9593 55.9877 48.9593 56.1717V57.1607C48.9593 57.3447 48.8596 57.4367 48.6603 57.4367ZM47.1193 46.6497C47.1193 47.9837 47.4643 49.011 48.1543 49.7317C48.8596 50.4524 49.7029 50.8127 50.6843 50.8127C51.6809 50.8127 52.5089 50.4294 53.1683 49.6627C53.8429 48.8807 54.1803 47.861 54.1803 46.6037C54.1803 45.331 53.8429 44.3114 53.1683 43.5447C52.5089 42.778 51.6809 42.3947 50.6843 42.3947C49.6876 42.3947 48.8443 42.7704 48.1543 43.5217C47.4643 44.273 47.1193 45.3157 47.1193 46.6497ZM75.2887 46.8337H67.0087C67.07 48.1064 67.4687 49.0877 68.2047 49.7777C68.956 50.4677 69.7994 50.8127 70.7347 50.8127C71.67 50.8127 72.4674 50.6134 73.1267 50.2147C73.8014 49.816 74.2537 49.425 74.4837 49.0417C74.6064 48.8884 74.7444 48.8654 74.8977 48.9727L75.5187 49.5937C75.6107 49.6857 75.6567 49.77 75.6567 49.8467C75.6567 49.908 75.6184 49.9924 75.5417 50.0997C75.4803 50.207 75.3423 50.3757 75.1277 50.6057C74.913 50.8357 74.6064 51.0964 74.2077 51.3877C73.8244 51.679 73.3184 51.9244 72.6897 52.1237C72.0764 52.323 71.417 52.4227 70.7117 52.4227C69.1017 52.4227 67.7524 51.8937 66.6637 50.8357C65.5904 49.7777 65.0537 48.3594 65.0537 46.5807C65.0537 44.7867 65.5904 43.376 66.6637 42.3487C67.737 41.306 69.048 40.7847 70.5967 40.7847C72.1607 40.7847 73.3874 41.2907 74.2767 42.3027C75.166 43.2994 75.6107 44.6487 75.6107 46.3507C75.6107 46.412 75.6107 46.4734 75.6107 46.5347C75.6107 46.734 75.5033 46.8337 75.2887 46.8337ZM73.7017 45.4307C73.6557 44.48 73.3567 43.721 72.8047 43.1537C72.2527 42.5864 71.5167 42.3027 70.5967 42.3027C69.6767 42.3027 68.887 42.5634 68.2277 43.0847C67.5684 43.606 67.1774 44.388 67.0547 45.4307H73.7017ZM87.6647 46.8337H79.3847C79.446 48.1064 79.8447 49.0877 80.5807 49.7777C81.332 50.4677 82.1753 50.8127 83.1107 50.8127C84.046 50.8127 84.8433 50.6134 85.5027 50.2147C86.1773 49.816 86.6297 49.425 86.8597 49.0417C86.9823 48.8884 87.1203 48.8654 87.2737 48.9727L87.8947 49.5937C87.9867 49.6857 88.0327 49.77 88.0327 49.8467C88.0327 49.908 87.9943 49.9924 87.9177 50.0997C87.8563 50.207 87.7183 50.3757 87.5037 50.6057C87.289 50.8357 86.9823 51.0964 86.5837 51.3877C86.2003 51.679 85.6943 51.9244 85.0657 52.1237C84.4523 52.323 83.793 52.4227 83.0877 52.4227C81.4777 52.4227 80.1283 51.8937 79.0397 50.8357C77.9663 49.7777 77.4297 48.3594 77.4297 46.5807C77.4297 44.7867 77.9663 43.376 79.0397 42.3487C80.113 41.306 81.424 40.7847 82.9727 40.7847C84.5367 40.7847 85.7633 41.2907 86.6527 42.3027C87.542 43.2994 87.9867 44.6487 87.9867 46.3507C87.9867 46.412 87.9867 46.4734 87.9867 46.5347C87.9867 46.734 87.8793 46.8337 87.6647 46.8337ZM86.0777 45.4307C86.0317 44.48 85.7327 43.721 85.1807 43.1537C84.6287 42.5864 83.8927 42.3027 82.9727 42.3027C82.0527 42.3027 81.263 42.5634 80.6037 43.0847C79.9443 43.606 79.5533 44.388 79.4307 45.4307H86.0777ZM102.042 52.2617H99.8566C99.1973 52.2617 98.8676 51.9397 98.8676 51.2957V45.2467C98.8676 44.3574 98.653 43.6674 98.2236 43.1767C97.7943 42.686 97.1656 42.4407 96.3376 42.4407C95.157 42.4407 94.237 42.9237 93.5776 43.8897C93.501 43.9817 93.4013 44.1504 93.2786 44.3957V50.7207H94.4976C94.697 50.7207 94.7966 50.8127 94.7966 50.9967V51.9857C94.7966 52.1697 94.697 52.2617 94.4976 52.2617H90.1046C89.9053 52.2617 89.8056 52.1697 89.8056 51.9857V50.9967C89.8056 50.8127 89.9053 50.7207 90.1046 50.7207H91.3696V42.4867H90.1046C89.9053 42.4867 89.8056 42.3947 89.8056 42.2107V41.2217C89.8056 41.0377 89.9053 40.9457 90.1046 40.9457H92.7956C92.995 40.9457 93.0946 41.0377 93.0946 41.2217L93.0486 42.7857H93.1176C93.915 41.4517 95.1493 40.7847 96.8206 40.7847C98.0473 40.7847 99.0056 41.145 99.6956 41.8657C100.386 42.5864 100.738 43.56 100.754 44.7867V50.7207H102.042C102.241 50.7207 102.341 50.8127 102.341 50.9967V51.9857C102.341 52.1697 102.241 52.2617 102.042 52.2617ZM116.223 57.4367H111.6C111.4 57.4367 111.301 57.3447 111.301 57.1607V56.1717C111.301 55.9877 111.4 55.8957 111.6 55.8957H112.888V42.4867H111.646C111.446 42.4867 111.347 42.3947 111.347 42.2107V41.2217C111.347 41.0377 111.446 40.9457 111.646 40.9457H114.337C114.536 40.9457 114.636 41.0377 114.636 41.2217L114.613 43.0387H114.636C114.927 42.41 115.395 41.881 116.039 41.4517C116.698 41.007 117.503 40.7847 118.454 40.7847C120.002 40.7847 121.252 41.3137 122.203 42.3717C123.153 43.4144 123.629 44.8097 123.629 46.5577C123.629 48.2904 123.161 49.701 122.226 50.7897C121.29 51.8784 120.041 52.4227 118.477 52.4227C117.526 52.4227 116.729 52.208 116.085 51.7787C115.456 51.334 115.004 50.7974 114.728 50.1687H114.659C114.705 50.6594 114.728 51.012 114.728 51.2267V55.8957H116.223C116.422 55.8957 116.522 55.9877 116.522 56.1717V57.1607C116.522 57.3447 116.422 57.4367 116.223 57.4367ZM114.682 46.6497C114.682 47.9837 115.027 49.011 115.717 49.7317C116.422 50.4524 117.265 50.8127 118.247 50.8127C119.243 50.8127 120.071 50.4294 120.731 49.6627C121.405 48.8807 121.743 47.861 121.743 46.6037C121.743 45.331 121.405 44.3114 120.731 43.5447C120.071 42.778 119.243 42.3947 118.247 42.3947C117.25 42.3947 116.407 42.7704 115.717 43.5217C115.027 44.273 114.682 45.3157 114.682 46.6497ZM136.542 52.2617H134.541C133.882 52.2617 133.552 51.9397 133.552 51.2957V50.1227H133.506C132.387 51.6714 130.892 52.4457 129.021 52.4457C127.917 52.4457 127.012 52.162 126.307 51.5947C125.602 51.012 125.249 50.23 125.249 49.2487C125.249 47.9914 125.793 47.0714 126.882 46.4887C127.986 45.8907 129.496 45.5917 131.413 45.5917H133.345V45.3157C133.345 43.399 132.348 42.4407 130.355 42.4407C129.42 42.4407 128.745 42.5327 128.331 42.7167C127.917 42.8854 127.618 43.0234 127.434 43.1307C127.265 43.238 127.135 43.3224 127.043 43.3837C126.813 43.5677 126.644 43.583 126.537 43.4297L125.893 42.6247C125.786 42.502 125.801 42.3794 125.939 42.2567C126.2 41.9194 126.736 41.5897 127.549 41.2677C128.362 40.9457 129.32 40.7847 130.424 40.7847C133.644 40.7847 135.254 42.318 135.254 45.3847V50.7207H136.542C136.726 50.7207 136.818 50.8127 136.818 50.9967V51.9857C136.818 52.1697 136.726 52.2617 136.542 52.2617ZM133.345 46.9717H131.528C130.639 46.9717 129.903 47.0177 129.32 47.1097C128.737 47.2017 128.239 47.401 127.825 47.7077C127.426 48.0144 127.227 48.436 127.227 48.9727C127.227 49.5094 127.442 49.954 127.871 50.3067C128.316 50.644 128.891 50.8127 129.596 50.8127C131.083 50.8127 132.333 50.1534 133.345 48.8347V46.9717ZM150.692 52.2617H149.45C148.975 52.2617 148.568 52.024 148.231 51.5487L144.16 46.0287L141.929 48.0987V50.7207H143.148C143.347 50.7207 143.447 50.8127 143.447 50.9967V51.9857C143.447 52.1697 143.347 52.2617 143.148 52.2617H138.755C138.556 52.2617 138.456 52.1697 138.456 51.9857V50.9967C138.456 50.8127 138.556 50.7207 138.755 50.7207H140.02V37.2887H138.755C138.556 37.2887 138.456 37.1967 138.456 37.0127V36.0237C138.456 35.8397 138.556 35.7477 138.755 35.7477H141.653C141.837 35.7477 141.929 35.8397 141.929 36.0237V46.3277L146.115 42.4867H145.287C145.103 42.4867 145.011 42.3947 145.011 42.2107V41.2217C145.011 41.0377 145.103 40.9457 145.287 40.9457H149.703C149.887 40.9457 149.979 41.0377 149.979 41.2217V42.2107C149.979 42.3947 149.887 42.4867 149.703 42.4867H148.208L145.402 44.9477L149.703 50.7207H150.692C150.876 50.7207 150.968 50.8127 150.968 50.9967V51.9857C150.968 52.1697 150.876 52.2617 150.692 52.2617ZM163.697 52.2617H162.455C161.98 52.2617 161.573 52.024 161.236 51.5487L157.165 46.0287L154.934 48.0987V50.7207H156.153C156.352 50.7207 156.452 50.8127 156.452 50.9967V51.9857C156.452 52.1697 156.352 52.2617 156.153 52.2617H151.76C151.561 52.2617 151.461 52.1697 151.461 51.9857V50.9967C151.461 50.8127 151.561 50.7207 151.76 50.7207H153.025V37.2887H151.76C151.561 37.2887 151.461 37.1967 151.461 37.0127V36.0237C151.461 35.8397 151.561 35.7477 151.76 35.7477H154.658C154.842 35.7477 154.934 35.8397 154.934 36.0237V46.3277L159.12 42.4867H158.292C158.108 42.4867 158.016 42.3947 158.016 42.2107V41.2217C158.016 41.0377 158.108 40.9457 158.292 40.9457H162.708C162.892 40.9457 162.984 41.0377 162.984 41.2217V42.2107C162.984 42.3947 162.892 42.4867 162.708 42.4867H161.213L158.407 44.9477L162.708 50.7207H163.697C163.881 50.7207 163.973 50.8127 163.973 50.9967V51.9857C163.973 52.1697 163.881 52.2617 163.697 52.2617ZM174.633 46.8337H166.353C166.415 48.1064 166.813 49.0877 167.549 49.7777C168.301 50.4677 169.144 50.8127 170.079 50.8127C171.015 50.8127 171.812 50.6134 172.471 50.2147C173.146 49.816 173.598 49.425 173.828 49.0417C173.951 48.8884 174.089 48.8654 174.242 48.9727L174.863 49.5937C174.955 49.6857 175.001 49.77 175.001 49.8467C175.001 49.908 174.963 49.9924 174.886 50.0997C174.825 50.207 174.687 50.3757 174.472 50.6057C174.258 50.8357 173.951 51.0964 173.552 51.3877C173.169 51.679 172.663 51.9244 172.034 52.1237C171.421 52.323 170.762 52.4227 170.056 52.4227C168.446 52.4227 167.097 51.8937 166.008 50.8357C164.935 49.7777 164.398 48.3594 164.398 46.5807C164.398 44.7867 164.935 43.376 166.008 42.3487C167.082 41.306 168.393 40.7847 169.941 40.7847C171.505 40.7847 172.732 41.2907 173.621 42.3027C174.511 43.2994 174.955 44.6487 174.955 46.3507C174.955 46.412 174.955 46.4734 174.955 46.5347C174.955 46.734 174.848 46.8337 174.633 46.8337ZM173.046 45.4307C173 44.48 172.701 43.721 172.149 43.1537C171.597 42.5864 170.861 42.3027 169.941 42.3027C169.021 42.3027 168.232 42.5634 167.572 43.0847C166.913 43.606 166.522 44.388 166.399 45.4307H173.046ZM184.344 51.0887C184.405 51.15 184.436 51.219 184.436 51.2957C184.436 51.357 184.39 51.4337 184.298 51.5257C183.623 52.1237 182.772 52.4227 181.745 52.4227C180.733 52.4227 179.897 52.093 179.238 51.4337C178.594 50.759 178.272 49.7854 178.272 48.5127V42.4867H176.984C176.769 42.4867 176.662 42.387 176.662 42.1877V41.2447C176.662 41.0454 176.769 40.9457 176.984 40.9457H178.272V38.6227C178.272 38.408 178.379 38.3007 178.594 38.3007H179.882C180.081 38.3007 180.181 38.408 180.181 38.6227V40.9457H183.102C183.317 40.9457 183.424 41.0454 183.424 41.2447V42.1877C183.424 42.387 183.317 42.4867 183.102 42.4867H180.181V48.4667C180.181 49.2334 180.35 49.816 180.687 50.2147C181.04 50.598 181.5 50.7897 182.067 50.7897C182.65 50.7897 183.087 50.644 183.378 50.3527C183.531 50.2147 183.669 50.2224 183.792 50.3757L184.344 51.0887ZM188.58 37.5417C188.84 37.787 188.971 38.086 188.971 38.4387C188.971 38.7914 188.84 39.098 188.58 39.3587C188.334 39.604 188.035 39.7267 187.683 39.7267C187.33 39.7267 187.023 39.604 186.763 39.3587C186.517 39.098 186.395 38.7914 186.395 38.4387C186.395 38.086 186.517 37.787 186.763 37.5417C187.023 37.281 187.33 37.1507 187.683 37.1507C188.035 37.1507 188.334 37.281 188.58 37.5417ZM186.694 53.7107V42.4867H185.406C185.222 42.4867 185.13 42.3947 185.13 42.2107V41.2217C185.13 41.0377 185.222 40.9457 185.406 40.9457H188.327C188.511 40.9457 188.603 41.0377 188.603 41.2217V53.7337C188.603 55.0064 188.273 55.9724 187.614 56.6317C186.97 57.3064 186.065 57.6437 184.9 57.6437C184.041 57.6437 183.274 57.3447 182.6 56.7467C182.508 56.67 182.462 56.5934 182.462 56.5167C182.462 56.44 182.492 56.371 182.554 56.3097L183.083 55.6197C183.221 55.4817 183.359 55.4664 183.497 55.5737C183.865 55.865 184.279 56.0107 184.739 56.0107C186.042 56.0107 186.694 55.244 186.694 53.7107ZM201.227 46.8337H192.947C193.008 48.1064 193.407 49.0877 194.143 49.7777C194.894 50.4677 195.738 50.8127 196.673 50.8127C197.608 50.8127 198.406 50.6134 199.065 50.2147C199.74 49.816 200.192 49.425 200.422 49.0417C200.545 48.8884 200.683 48.8654 200.836 48.9727L201.457 49.5937C201.549 49.6857 201.595 49.77 201.595 49.8467C201.595 49.908 201.557 49.9924 201.48 50.0997C201.419 50.207 201.281 50.3757 201.066 50.6057C200.851 50.8357 200.545 51.0964 200.146 51.3877C199.763 51.679 199.257 51.9244 198.628 52.1237C198.015 52.323 197.355 52.4227 196.65 52.4227C195.04 52.4227 193.691 51.8937 192.602 50.8357C191.529 49.7777 190.992 48.3594 190.992 46.5807C190.992 44.7867 191.529 43.376 192.602 42.3487C193.675 41.306 194.986 40.7847 196.535 40.7847C198.099 40.7847 199.326 41.2907 200.215 42.3027C201.104 43.2994 201.549 44.6487 201.549 46.3507C201.549 46.412 201.549 46.4734 201.549 46.5347C201.549 46.734 201.442 46.8337 201.227 46.8337ZM199.64 45.4307C199.594 44.48 199.295 43.721 198.743 43.1537C198.191 42.5864 197.455 42.3027 196.535 42.3027C195.615 42.3027 194.825 42.5634 194.166 43.0847C193.507 43.606 193.116 44.388 192.993 45.4307H199.64Z" fill="#1DFFF4"/>
<path d="M61.7882 159.14C62.0232 159.639 62.6201 159.854 63.1213 159.621L71.2886 155.819C71.7898 155.586 72.0056 154.992 71.7705 154.493C71.5355 153.994 70.9387 153.778 70.4375 154.012L63.1776 157.391L59.7728 150.16C59.5378 149.661 58.941 149.446 58.4398 149.679C57.9386 149.912 57.7228 150.506 57.9579 151.005L61.7882 159.14ZM93.6921 70.476L61.753 158.377L63.6383 159.058L95.5774 71.1568L93.6921 70.476Z" fill="#1DFFF4"/>
</svg>
