<svg width="349" height="121" viewBox="0 0 349 121" fill="none" xmlns="http://www.w3.org/2000/svg">
<path d="M62.736 75.0011C63.1 75.0011 63.412 75.1181 63.672 75.3521C63.932 75.5601 64.062 75.8331 64.062 76.1711C64.062 76.5091 63.932 76.7951 63.672 77.0291C63.412 77.2371 63.1 77.3411 62.736 77.3411H47.643C47.279 77.3411 46.967 77.2111 46.707 76.9511C46.447 76.6911 46.317 76.3791 46.317 76.0151V49.0271C46.317 48.6631 46.447 48.3511 46.707 48.0911C46.967 47.8311 47.279 47.7011 47.643 47.7011H49.983C50.347 47.7011 50.659 47.8311 50.919 48.0911C51.179 48.3511 51.309 48.6631 51.309 49.0271V75.0011H62.736ZM91.1118 74.7281C90.3058 75.5341 89.2788 76.2361 88.0308 76.8341C86.8088 77.4321 85.4698 77.7311 84.0138 77.7311C80.7898 77.7311 78.2808 76.8081 76.4868 74.9621C74.7188 73.0901 73.8348 70.5811 73.8348 67.4351C73.8348 65.4591 74.2378 63.6911 75.0438 62.1311C75.8758 60.5711 77.0068 59.3361 78.4368 58.4261C79.8928 57.5161 81.5698 57.0611 83.4678 57.0611C85.4178 57.0611 87.1208 57.4771 88.5768 58.3091C90.0588 59.1411 91.2158 60.2851 92.0478 61.7411C92.8798 63.1971 93.2958 64.8741 93.2958 66.7721C93.2958 67.1361 93.1658 67.4351 92.9058 67.6691C92.6718 67.9031 92.3728 68.0201 92.0088 68.0201H78.0468C78.1508 70.3341 78.7618 72.1411 79.8798 73.4411C80.9978 74.7411 82.3758 75.3911 84.0138 75.3911C84.8458 75.3911 85.5088 75.1701 86.0028 74.7281C86.4968 74.2861 86.9908 73.6621 87.4848 72.8561C87.7708 72.2841 88.2128 72.0631 88.8108 72.1931L90.2538 72.5441C91.0598 72.7521 91.4628 73.2071 91.4628 73.9091C91.4628 74.2211 91.3458 74.4941 91.1118 74.7281ZM83.4678 59.4011C82.7138 59.4011 81.9728 59.6871 81.2448 60.2591C80.5168 60.8051 79.8798 61.5461 79.3338 62.4821C78.7878 63.4181 78.4108 64.4841 78.2028 65.6801H88.2648C88.1088 63.8341 87.6018 62.3261 86.7438 61.1561C85.8858 59.9861 84.7938 59.4011 83.4678 59.4011ZM122.076 74.7281C121.27 75.5341 120.243 76.2361 118.995 76.8341C117.773 77.4321 116.434 77.7311 114.978 77.7311C111.754 77.7311 109.245 76.8081 107.451 74.9621C105.683 73.0901 104.799 70.5811 104.799 67.4351C104.799 65.4591 105.202 63.6911 106.008 62.1311C106.84 60.5711 107.971 59.3361 109.401 58.4261C110.857 57.5161 112.534 57.0611 114.432 57.0611C116.382 57.0611 118.085 57.4771 119.541 58.3091C121.023 59.1411 122.18 60.2851 123.012 61.7411C123.844 63.1971 124.26 64.8741 124.26 66.7721C124.26 67.1361 124.13 67.4351 123.87 67.6691C123.636 67.9031 123.337 68.0201 122.973 68.0201H109.011C109.115 70.3341 109.726 72.1411 110.844 73.4411C111.962 74.7411 113.34 75.3911 114.978 75.3911C115.81 75.3911 116.473 75.1701 116.967 74.7281C117.461 74.2861 117.955 73.6621 118.449 72.8561C118.735 72.2841 119.177 72.0631 119.775 72.1931L121.218 72.5441C122.024 72.7521 122.427 73.2071 122.427 73.9091C122.427 74.2211 122.31 74.4941 122.076 74.7281ZM114.432 59.4011C113.678 59.4011 112.937 59.6871 112.209 60.2591C111.481 60.8051 110.844 61.5461 110.298 62.4821C109.752 63.4181 109.375 64.4841 109.167 65.6801H119.229C119.073 63.8341 118.566 62.3261 117.708 61.1561C116.85 59.9861 115.758 59.4011 114.432 59.4011ZM150.544 58.3091C150.908 58.5691 151.194 58.8421 151.402 59.1281C151.636 59.3881 151.753 59.6351 151.753 59.8691C151.753 60.0511 151.662 60.2201 151.48 60.3761L150.778 60.8831C150.518 61.0651 150.271 61.1561 150.037 61.1561C149.803 61.1561 149.608 61.0781 149.452 60.9221C148.776 60.3501 148.204 59.9731 147.736 59.7911C147.268 59.5831 146.787 59.4791 146.293 59.4791C145.435 59.4791 144.603 59.8821 143.797 60.6881C143.017 61.4941 142.38 62.5601 141.886 63.8861C141.392 65.2121 141.145 66.6551 141.145 68.2151V76.0541C141.145 76.9121 140.716 77.3411 139.858 77.3411H137.869C137.505 77.3411 137.193 77.2111 136.933 76.9511C136.673 76.6911 136.543 76.3791 136.543 76.0151V58.7381C136.543 57.8801 136.972 57.4511 137.83 57.4511H139.858C140.716 57.4511 141.145 57.8411 141.145 58.6211C141.873 58.1531 142.666 57.7891 143.524 57.5291C144.382 57.2691 145.305 57.1391 146.293 57.1391C147.099 57.1391 147.866 57.2301 148.594 57.4121C149.322 57.5681 149.972 57.8671 150.544 58.3091ZM201.972 71.7251C201.738 72.2451 201.452 72.5051 201.114 72.5051C200.776 72.5051 200.49 72.2451 200.256 71.7251L193.353 56.6711V76.0541C193.353 76.9121 192.924 77.3411 192.066 77.3411H190.35C189.492 77.3411 189.063 76.9121 189.063 76.0541V48.9881C189.063 48.1301 189.492 47.7011 190.35 47.7011H191.832C192.534 47.7011 193.041 48.0261 193.353 48.6761L201.036 64.7441L208.68 48.6761C208.966 48.0261 209.473 47.7011 210.201 47.7011H211.683C212.541 47.7011 212.97 48.1301 212.97 48.9881V76.0541C212.97 76.9121 212.541 77.3411 211.683 77.3411H209.967C209.109 77.3411 208.68 76.9121 208.68 76.0541V56.7881L201.972 71.7251ZM242.541 74.7281C241.735 75.5341 240.708 76.2361 239.46 76.8341C238.238 77.4321 236.899 77.7311 235.443 77.7311C232.219 77.7311 229.71 76.8081 227.916 74.9621C226.148 73.0901 225.264 70.5811 225.264 67.4351C225.264 65.4591 225.667 63.6911 226.473 62.1311C227.305 60.5711 228.436 59.3361 229.866 58.4261C231.322 57.5161 232.999 57.0611 234.897 57.0611C236.847 57.0611 238.55 57.4771 240.006 58.3091C241.488 59.1411 242.645 60.2851 243.477 61.7411C244.309 63.1971 244.725 64.8741 244.725 66.7721C244.725 67.1361 244.595 67.4351 244.335 67.6691C244.101 67.9031 243.802 68.0201 243.438 68.0201H229.476C229.58 70.3341 230.191 72.1411 231.309 73.4411C232.427 74.7411 233.805 75.3911 235.443 75.3911C236.275 75.3911 236.938 75.1701 237.432 74.7281C237.926 74.2861 238.42 73.6621 238.914 72.8561C239.2 72.2841 239.642 72.0631 240.24 72.1931L241.683 72.5441C242.489 72.7521 242.892 73.2071 242.892 73.9091C242.892 74.2211 242.775 74.4941 242.541 74.7281ZM234.897 59.4011C234.143 59.4011 233.402 59.6871 232.674 60.2591C231.946 60.8051 231.309 61.5461 230.763 62.4821C230.217 63.4181 229.84 64.4841 229.632 65.6801H239.694C239.538 63.8341 239.031 62.3261 238.173 61.1561C237.315 59.9861 236.223 59.4011 234.897 59.4011ZM273.505 74.7281C272.699 75.5341 271.672 76.2361 270.424 76.8341C269.202 77.4321 267.863 77.7311 266.407 77.7311C263.183 77.7311 260.674 76.8081 258.88 74.9621C257.112 73.0901 256.228 70.5811 256.228 67.4351C256.228 65.4591 256.631 63.6911 257.437 62.1311C258.269 60.5711 259.4 59.3361 260.83 58.4261C262.286 57.5161 263.963 57.0611 265.861 57.0611C267.811 57.0611 269.514 57.4771 270.97 58.3091C272.452 59.1411 273.609 60.2851 274.441 61.7411C275.273 63.1971 275.689 64.8741 275.689 66.7721C275.689 67.1361 275.559 67.4351 275.299 67.6691C275.065 67.9031 274.766 68.0201 274.402 68.0201H260.44C260.544 70.3341 261.155 72.1411 262.273 73.4411C263.391 74.7411 264.769 75.3911 266.407 75.3911C267.239 75.3911 267.902 75.1701 268.396 74.7281C268.89 74.2861 269.384 73.6621 269.878 72.8561C270.164 72.2841 270.606 72.0631 271.204 72.1931L272.647 72.5441C273.453 72.7521 273.856 73.2071 273.856 73.9091C273.856 74.2211 273.739 74.4941 273.505 74.7281ZM265.861 59.4011C265.107 59.4011 264.366 59.6871 263.638 60.2591C262.91 60.8051 262.273 61.5461 261.727 62.4821C261.181 63.4181 260.804 64.4841 260.596 65.6801H270.658C270.502 63.8341 269.995 62.3261 269.137 61.1561C268.279 59.9861 267.187 59.4011 265.861 59.4011ZM301.973 58.3091C302.337 58.5691 302.623 58.8421 302.831 59.1281C303.065 59.3881 303.182 59.6351 303.182 59.8691C303.182 60.0511 303.091 60.2201 302.909 60.3761L302.207 60.8831C301.947 61.0651 301.7 61.1561 301.466 61.1561C301.232 61.1561 301.037 61.0781 300.881 60.9221C300.205 60.3501 299.633 59.9731 299.165 59.7911C298.697 59.5831 298.216 59.4791 297.722 59.4791C296.864 59.4791 296.032 59.8821 295.226 60.6881C294.446 61.4941 293.809 62.5601 293.315 63.8861C292.821 65.2121 292.574 66.6551 292.574 68.2151V76.0541C292.574 76.9121 292.145 77.3411 291.287 77.3411H289.298C288.934 77.3411 288.622 77.2111 288.362 76.9511C288.102 76.6911 287.972 76.3791 287.972 76.0151V58.7381C287.972 57.8801 288.401 57.4511 289.259 57.4511H291.287C292.145 57.4511 292.574 57.8411 292.574 58.6211C293.302 58.1531 294.095 57.7891 294.953 57.5291C295.811 57.2691 296.734 57.1391 297.722 57.1391C298.528 57.1391 299.295 57.2301 300.023 57.4121C300.751 57.5681 301.401 57.8671 301.973 58.3091Z" fill="#A9FAF6"/>
<path d="M330.93 19.1868H17.6641V102.386H330.93V19.1868Z" stroke="#A9FAF6" stroke-width="2" stroke-miterlimit="10"/>
<path d="M329.204 103.203L320.826 114.628L323.485 102.414L313.228 114.628L317.407 102.414L304.871 114.628L310.569 102.414L298.223 113.61L303.351 102.414L291.574 113.61L296.893 102.414L284.357 113.61L289.865 102.414L274.86 114.628L282.457 102.414L267.262 113.61L273.72 102.414L258.904 113.61L264.793 102.414L249.217 113.61L256.055 102.414L238.96 113.61L245.039 102.414L228.513 113.61L235.731 102.414L219.776 113.61L227.374 102.414L211.798 113.61L219.776 102.414L202.111 114.628L209.899 102.414L191.854 114.628L202.111 102.414" stroke="#A9FAF6" stroke-width="2"/>
<path d="M71.2078 102.414L64.6226 114.171L78.5433 102.414L73.4275 113.61L88.4203 102.414L80.4427 113.61L96.0181 102.414L88.4203 113.61L104.376 102.414L97.1578 113.61L113.683 102.414L107.605 113.61L124.699 102.414L117.861 113.61L133.437 102.414L127.549 113.61L142.364 102.414L135.906 113.61L151.102 102.414L143.504 114.628L158.509 102.414L153.001 113.61L165.537 102.414L160.219 113.61L171.995 102.414L166.867 113.61L179.213 102.414L173.515 114.628L186.051 102.414L181.872 114.628L192.129 102.414L189.47 114.628L201.311 102.414" stroke="#A9FAF6" stroke-width="2"/>
<path d="M5.62732 114.147L17.6403 91.5841L5.25684 102.586L17.6403 87.0706L5.62732 92.4829L17.6403 79.1326L5.25684 84.5449L17.6403 70.7136L5.62732 75.0434L17.6403 64.5797L5.62732 67.2257L17.6403 57.8444H5.89192L17.6403 48.3429L5.25684 46.7793L17.6403 38.3602L5.89192 36.5561L17.6403 29.5803L5.62732 24.8897L17.6403 20.0788" stroke="#A9FAF6" stroke-width="2"/>
<path d="M5.24805 114.717L20.4269 103.191L14.635 114.226L27.827 103.191L22.3959 114.717L34.8474 103.191L30.1568 114.717L40.5489 104.498L37.696 114.226L48.509 103.191L42.8167 114.717L54.332 104.498L51.1482 114.226L60.7569 104.498L58.983 114.226L70.5833 103.191" stroke="#A9FAF6" stroke-width="2"/>
</svg>
