<svg width="313" height="125" viewBox="0 0 313 125" fill="none" xmlns="http://www.w3.org/2000/svg">
<path d="M47.0082 54.2773C46.8582 54.6107 46.6748 54.7773 46.4582 54.7773C46.2415 54.7773 46.0582 54.6107 45.9082 54.2773L41.4832 44.6273V57.0523C41.4832 57.6023 41.2082 57.8773 40.6582 57.8773H39.5582C39.0082 57.8773 38.7332 57.6023 38.7332 57.0523V39.7023C38.7332 39.1523 39.0082 38.8773 39.5582 38.8773H40.5082C40.9582 38.8773 41.2832 39.0857 41.4832 39.5023L46.4082 49.8023L51.3082 39.5023C51.4915 39.0857 51.8165 38.8773 52.2832 38.8773H53.2332C53.7832 38.8773 54.0582 39.1523 54.0582 39.7023V57.0523C54.0582 57.6023 53.7832 57.8773 53.2332 57.8773H52.1332C51.5832 57.8773 51.3082 57.6023 51.3082 57.0523V44.7023L47.0082 54.2773ZM67.1804 58.1273C66.1138 58.1273 65.2054 57.8523 64.4554 57.3023C63.7221 56.7357 63.1554 55.9607 62.7554 54.9773C62.3721 53.994 62.1804 52.869 62.1804 51.6023C62.1804 50.3523 62.4054 49.219 62.8554 48.2023C63.3221 47.1857 63.9638 46.3773 64.7804 45.7773C65.5971 45.1773 66.5554 44.8773 67.6554 44.8773C69.0888 44.8773 70.2804 45.1857 71.2304 45.8023C72.1804 46.4023 72.8888 47.1857 73.3554 48.1523C73.8221 49.119 74.0554 50.144 74.0554 51.2273C74.0554 51.294 74.0554 51.3607 74.0554 51.4273C74.1721 52.544 74.3054 53.5607 74.4554 54.4773C74.6054 55.3773 74.7554 56.1273 74.9054 56.7273C74.9221 56.7773 74.9304 56.844 74.9304 56.9273C74.9304 57.4273 74.6721 57.719 74.1554 57.8023L72.7304 57.9773C72.2638 58.0273 71.9721 57.8357 71.8554 57.4023C71.7888 57.1357 71.7304 56.8607 71.6804 56.5773C71.1138 57.0607 70.4554 57.444 69.7054 57.7273C68.9554 57.994 68.1138 58.1273 67.1804 58.1273ZM67.1804 56.6273C67.9971 56.6273 68.6721 56.3607 69.2054 55.8273C69.7388 55.2773 70.1388 54.5857 70.4054 53.7523C70.6888 52.919 70.8304 52.0607 70.8304 51.1773C70.8304 51.1607 70.8304 51.1273 70.8304 51.0773C70.8138 50.994 70.8054 50.9023 70.8054 50.8023C70.8054 50.719 70.8054 50.644 70.8054 50.5773C70.7554 49.844 70.6054 49.1607 70.3554 48.5273C70.1054 47.8773 69.7554 47.3607 69.3054 46.9773C68.8554 46.5773 68.3054 46.3773 67.6554 46.3773C67.3054 46.3773 66.9554 46.6357 66.6054 47.1523C66.2554 47.6523 65.9638 48.3023 65.7304 49.1023C65.4971 49.9023 65.3804 50.7357 65.3804 51.6023C65.3804 52.469 65.4721 53.2857 65.6554 54.0523C65.8388 54.819 66.0721 55.444 66.3554 55.9273C66.6388 56.394 66.9138 56.6273 67.1804 56.6273ZM87.6638 58.1273C86.5972 58.1273 85.6888 57.8523 84.9388 57.3023C84.2055 56.7357 83.6388 55.9607 83.2388 54.9773C82.8555 53.994 82.6638 52.869 82.6638 51.6023C82.6638 50.3523 82.8888 49.219 83.3388 48.2023C83.8055 47.1857 84.4472 46.3773 85.2638 45.7773C86.0805 45.1773 87.0388 44.8773 88.1388 44.8773C89.5722 44.8773 90.7638 45.1857 91.7138 45.8023C92.6638 46.4023 93.3722 47.1857 93.8388 48.1523C94.3055 49.119 94.5388 50.144 94.5388 51.2273C94.5388 51.294 94.5388 51.3607 94.5388 51.4273C94.6555 52.544 94.7888 53.5607 94.9388 54.4773C95.0888 55.3773 95.2388 56.1273 95.3888 56.7273C95.4055 56.7773 95.4138 56.844 95.4138 56.9273C95.4138 57.4273 95.1555 57.719 94.6388 57.8023L93.2138 57.9773C92.7472 58.0273 92.4555 57.8357 92.3388 57.4023C92.2722 57.1357 92.2138 56.8607 92.1638 56.5773C91.5972 57.0607 90.9388 57.444 90.1888 57.7273C89.4388 57.994 88.5972 58.1273 87.6638 58.1273ZM87.6638 56.6273C88.4805 56.6273 89.1555 56.3607 89.6888 55.8273C90.2222 55.2773 90.6222 54.5857 90.8888 53.7523C91.1722 52.919 91.3138 52.0607 91.3138 51.1773C91.3138 51.1607 91.3138 51.1273 91.3138 51.0773C91.2972 50.994 91.2888 50.9023 91.2888 50.8023C91.2888 50.719 91.2888 50.644 91.2888 50.5773C91.2388 49.844 91.0888 49.1607 90.8388 48.5273C90.5888 47.8773 90.2388 47.3607 89.7888 46.9773C89.3388 46.5773 88.7888 46.3773 88.1388 46.3773C87.7888 46.3773 87.4388 46.6357 87.0888 47.1523C86.7388 47.6523 86.4472 48.3023 86.2138 49.1023C85.9805 49.9023 85.8638 50.7357 85.8638 51.6023C85.8638 52.469 85.9555 53.2857 86.1388 54.0523C86.3222 54.819 86.5555 55.444 86.8388 55.9273C87.1222 56.394 87.3972 56.6273 87.6638 56.6273ZM106.956 57.0273C106.956 57.2607 106.873 57.4607 106.706 57.6273C106.539 57.794 106.339 57.8773 106.106 57.8773H104.756C104.523 57.8773 104.323 57.794 104.156 57.6273C103.989 57.4607 103.906 57.2607 103.906 57.0273V39.7273C103.906 39.494 103.989 39.294 104.156 39.1273C104.323 38.9607 104.523 38.8773 104.756 38.8773H106.106C106.339 38.8773 106.539 38.9607 106.706 39.1273C106.873 39.294 106.956 39.494 106.956 39.7273V50.3773L113.356 45.2023C113.489 45.0857 113.648 45.0273 113.831 45.0273C113.964 45.0273 114.089 45.0607 114.206 45.1273L114.556 45.3273C114.906 45.5273 115.081 45.8023 115.081 46.1523C115.081 46.4357 114.948 46.6857 114.681 46.9023L109.156 51.3773L114.606 56.0773C114.889 56.3107 115.031 56.5773 115.031 56.8773C115.031 57.1773 114.889 57.4023 114.606 57.5523L114.006 57.8773C113.906 57.9273 113.789 57.9523 113.656 57.9523C113.456 57.9523 113.289 57.894 113.156 57.7773L107.506 52.9023C107.456 52.869 107.414 52.8273 107.381 52.7773L106.956 53.1273V57.0273ZM143.175 42.2273C143.175 42.7773 142.9 43.0523 142.35 43.0523H140.8C140.25 43.0523 139.975 42.7773 139.975 42.2273V40.7023C139.975 40.1523 140.25 39.8773 140.8 39.8773H142.35C142.9 39.8773 143.175 40.1523 143.175 40.7023V42.2273ZM135.05 62.5023C134.767 62.3857 134.625 62.2107 134.625 61.9773C134.625 61.7273 134.775 61.519 135.075 61.3524L135.5 61.1274C135.683 61.0274 135.858 60.9773 136.025 60.9773C136.225 60.9773 136.433 61.0523 136.65 61.2023C136.883 61.369 137.108 61.4774 137.325 61.5274C137.542 61.594 137.8 61.6274 138.1 61.6274C138.683 61.6274 139.142 61.319 139.475 60.7023C139.808 60.0857 139.975 59.144 139.975 57.8773V45.9523C139.975 45.4023 140.25 45.1273 140.8 45.1273H142.35C142.9 45.1273 143.175 45.4023 143.175 45.9523V57.8773C143.175 59.594 142.733 60.894 141.85 61.7773C140.983 62.6774 139.733 63.1274 138.1 63.1274C137.617 63.1274 137.1 63.069 136.55 62.9524C136 62.8357 135.5 62.6857 135.05 62.5023ZM162.37 56.2023C161.853 56.719 161.195 57.169 160.395 57.5523C159.611 57.9357 158.753 58.1273 157.82 58.1273C155.753 58.1273 154.145 57.5357 152.995 56.3523C151.861 55.1523 151.295 53.544 151.295 51.5273C151.295 50.2607 151.553 49.1273 152.07 48.1273C152.603 47.1273 153.328 46.3357 154.245 45.7523C155.178 45.169 156.253 44.8773 157.47 44.8773C158.72 44.8773 159.811 45.144 160.745 45.6773C161.695 46.2107 162.436 46.944 162.97 47.8773C163.503 48.8107 163.77 49.8857 163.77 51.1023C163.77 51.3357 163.686 51.5273 163.52 51.6773C163.37 51.8273 163.178 51.9023 162.945 51.9023H153.995C154.061 53.3857 154.453 54.544 155.17 55.3773C155.886 56.2107 156.77 56.6273 157.82 56.6273C158.353 56.6273 158.778 56.4857 159.095 56.2023C159.411 55.919 159.728 55.519 160.045 55.0023C160.228 54.6357 160.511 54.494 160.895 54.5773L161.82 54.8023C162.336 54.9357 162.595 55.2273 162.595 55.6773C162.595 55.8773 162.52 56.0523 162.37 56.2023ZM157.47 46.3773C156.986 46.3773 156.511 46.5607 156.045 46.9273C155.578 47.2773 155.17 47.7523 154.82 48.3523C154.47 48.9523 154.228 49.6357 154.095 50.4023H160.545C160.445 49.219 160.12 48.2523 159.57 47.5023C159.02 46.7523 158.32 46.3773 157.47 46.3773ZM198.332 56.2023C197.815 56.719 197.157 57.169 196.357 57.5523C195.573 57.9357 194.715 58.1273 193.782 58.1273C191.715 58.1273 190.107 57.5357 188.957 56.3523C187.823 55.1523 187.257 53.544 187.257 51.5273C187.257 50.2607 187.515 49.1273 188.032 48.1273C188.565 47.1273 189.29 46.3357 190.207 45.7523C191.14 45.169 192.215 44.8773 193.432 44.8773C194.682 44.8773 195.773 45.144 196.707 45.6773C197.657 46.2107 198.398 46.944 198.932 47.8773C199.465 48.8107 199.732 49.8857 199.732 51.1023C199.732 51.3357 199.648 51.5273 199.482 51.6773C199.332 51.8273 199.14 51.9023 198.907 51.9023H189.957C190.023 53.3857 190.415 54.544 191.132 55.3773C191.848 56.2107 192.732 56.6273 193.782 56.6273C194.315 56.6273 194.74 56.4857 195.057 56.2023C195.373 55.919 195.69 55.519 196.007 55.0023C196.19 54.6357 196.473 54.494 196.857 54.5773L197.782 54.8023C198.298 54.9357 198.557 55.2273 198.557 55.6773C198.557 55.8773 198.482 56.0523 198.332 56.2023ZM193.432 46.3773C192.948 46.3773 192.473 46.5607 192.007 46.9273C191.54 47.2773 191.132 47.7523 190.782 48.3523C190.432 48.9523 190.19 49.6357 190.057 50.4023H196.507C196.407 49.219 196.082 48.2523 195.532 47.5023C194.982 46.7523 194.282 46.3773 193.432 46.3773ZM210.682 41.9523C210.682 42.1857 210.599 42.3857 210.432 42.5523C210.266 42.719 210.066 42.8023 209.832 42.8023H208.332C208.099 42.8023 207.899 42.719 207.732 42.5523C207.566 42.3857 207.482 42.1857 207.482 41.9523V40.4773C207.482 40.244 207.566 40.044 207.732 39.8773C207.899 39.7107 208.099 39.6273 208.332 39.6273H209.832C210.066 39.6273 210.266 39.7107 210.432 39.8773C210.599 40.044 210.682 40.244 210.682 40.4773V41.9523ZM210.682 57.0273C210.682 57.2607 210.599 57.4607 210.432 57.6273C210.266 57.794 210.066 57.8773 209.832 57.8773H208.332C208.099 57.8773 207.899 57.794 207.732 57.6273C207.566 57.4607 207.482 57.2607 207.482 57.0273V45.9773C207.482 45.744 207.566 45.544 207.732 45.3773C207.899 45.2107 208.099 45.1273 208.332 45.1273H209.832C210.066 45.1273 210.266 45.2107 210.432 45.3773C210.599 45.544 210.682 45.744 210.682 45.9773V57.0273ZM220.8 60.9773C220.616 60.794 220.525 60.594 220.525 60.3773C220.525 59.944 220.775 59.644 221.275 59.4773L222.075 59.2273C222.125 59.2107 222.191 59.2023 222.275 59.2023C222.558 59.2023 222.783 59.3273 222.95 59.5773C223.383 60.2107 223.741 60.6274 224.025 60.8274C224.325 61.0274 224.708 61.1274 225.175 61.1274C226.075 61.1274 226.775 60.9274 227.275 60.5274C227.791 60.144 228.05 59.544 228.05 58.7273V56.9773C227.616 57.344 227.125 57.6273 226.575 57.8273C226.041 58.0273 225.441 58.1273 224.775 58.1273C223.591 58.1273 222.55 57.8357 221.65 57.2523C220.75 56.6523 220.05 55.844 219.55 54.8273C219.05 53.794 218.8 52.6357 218.8 51.3523C218.8 50.0857 219.025 48.969 219.475 48.0023C219.925 47.0357 220.566 46.2773 221.4 45.7273C222.25 45.1607 223.266 44.8773 224.45 44.8773C225.2 44.8773 225.875 44.969 226.475 45.1523C227.075 45.3357 227.6 45.594 228.05 45.9273C228.066 45.694 228.15 45.5023 228.3 45.3523C228.45 45.2023 228.65 45.1273 228.9 45.1273H230.15C230.383 45.1273 230.583 45.2107 230.75 45.3773C230.916 45.544 231 45.744 231 45.9773V58.7273C231 59.494 230.741 60.169 230.225 60.7523C229.725 61.3357 229.033 61.794 228.15 62.1273C227.266 62.4607 226.275 62.6274 225.175 62.6274C223.391 62.6274 221.933 62.0774 220.8 60.9773ZM224.775 56.6023C225.291 56.6023 225.8 56.4273 226.3 56.0773C226.8 55.7273 227.208 55.1773 227.525 54.4273C227.858 53.6607 228.025 52.6857 228.025 51.5023C228.025 49.6857 227.716 48.3857 227.1 47.6023C226.483 46.8023 225.6 46.4023 224.45 46.4023C224.033 46.4023 223.616 46.5857 223.2 46.9523C222.783 47.3023 222.433 47.844 222.15 48.5773C221.883 49.3107 221.75 50.2357 221.75 51.3523C221.75 52.3523 221.85 53.2523 222.05 54.0523C222.266 54.8357 222.591 55.4607 223.025 55.9273C223.475 56.3773 224.058 56.6023 224.775 56.6023ZM249.699 56.2023C249.182 56.719 248.524 57.169 247.724 57.5523C246.94 57.9357 246.082 58.1273 245.149 58.1273C243.082 58.1273 241.474 57.5357 240.324 56.3523C239.19 55.1523 238.624 53.544 238.624 51.5273C238.624 50.2607 238.882 49.1273 239.399 48.1273C239.932 47.1273 240.657 46.3357 241.574 45.7523C242.507 45.169 243.582 44.8773 244.799 44.8773C246.049 44.8773 247.14 45.144 248.074 45.6773C249.024 46.2107 249.765 46.944 250.299 47.8773C250.832 48.8107 251.099 49.8857 251.099 51.1023C251.099 51.3357 251.015 51.5273 250.849 51.6773C250.699 51.8273 250.507 51.9023 250.274 51.9023H241.324C241.39 53.3857 241.782 54.544 242.499 55.3773C243.215 56.2107 244.099 56.6273 245.149 56.6273C245.682 56.6273 246.107 56.4857 246.424 56.2023C246.74 55.919 247.057 55.519 247.374 55.0023C247.557 54.6357 247.84 54.494 248.224 54.5773L249.149 54.8023C249.665 54.9357 249.924 55.2273 249.924 55.6773C249.924 55.8773 249.849 56.0523 249.699 56.2023ZM244.799 46.3773C244.315 46.3773 243.84 46.5607 243.374 46.9273C242.907 47.2773 242.499 47.7523 242.149 48.3523C241.799 48.9523 241.557 49.6357 241.424 50.4023H247.874C247.774 49.219 247.449 48.2523 246.899 47.5023C246.349 46.7523 245.649 46.3773 244.799 46.3773ZM270.597 56.9773C270.597 57.244 270.514 57.4607 270.347 57.6273C270.181 57.794 269.981 57.8773 269.747 57.8773H268.347C268.114 57.8773 267.914 57.794 267.747 57.6273C267.581 57.444 267.497 57.219 267.497 56.9523C267.497 55.719 267.497 54.769 267.497 54.1023C267.497 53.419 267.489 52.9023 267.472 52.5523C267.472 52.1857 267.472 51.8773 267.472 51.6273C267.472 49.9607 267.289 48.669 266.922 47.7523C266.572 46.8357 265.989 46.3773 265.172 46.3773C264.139 46.3773 263.381 46.6023 262.897 47.0523C262.414 47.4857 262.172 48.194 262.172 49.1773V57.0273C262.172 57.2607 262.089 57.4607 261.922 57.6273C261.756 57.794 261.556 57.8773 261.322 57.8773H259.822C259.589 57.8773 259.389 57.794 259.222 57.6273C259.056 57.4607 258.972 57.2607 258.972 57.0273V45.7273C258.972 45.494 259.056 45.294 259.222 45.1273C259.389 44.9607 259.589 44.8773 259.822 44.8773H261.322C261.689 44.8773 261.947 45.0357 262.097 45.3523C263.014 45.0357 264.039 44.8773 265.172 44.8773C266.356 44.8773 267.297 45.0607 267.997 45.4273C268.697 45.794 269.231 46.3023 269.597 46.9523C269.964 47.5857 270.214 48.3107 270.347 49.1273C270.481 49.944 270.556 50.8023 270.572 51.7023C270.589 51.9523 270.597 52.2607 270.597 52.6273C270.597 52.9773 270.597 53.4857 270.597 54.1523C270.597 54.819 270.597 55.7607 270.597 56.9773ZM108.379 98.0274C108.379 98.2607 108.296 98.4607 108.129 98.6274C107.962 98.794 107.762 98.8773 107.529 98.8773H106.404C106.171 98.8773 105.971 98.794 105.804 98.6274C105.637 98.4607 105.554 98.2607 105.554 98.0274V81.9773C105.554 81.744 105.637 81.544 105.804 81.3773C105.971 81.2107 106.171 81.1273 106.404 81.1273H107.529C107.962 81.1273 108.237 81.3357 108.354 81.7523C109.171 81.169 110.296 80.8773 111.729 80.8773C112.912 80.8773 113.962 81.1773 114.879 81.7773C115.812 82.3607 116.546 83.144 117.079 84.1273C117.612 85.1107 117.879 86.194 117.879 87.3773C117.879 88.5607 117.629 89.644 117.129 90.6273C116.629 91.6107 115.929 92.4023 115.029 93.0023C114.146 93.5857 113.104 93.8773 111.904 93.8773C111.187 93.8773 110.529 93.7773 109.929 93.5773C109.346 93.3607 108.829 93.0607 108.379 92.6773V98.0274ZM111.829 92.3523C112.629 92.3523 113.271 92.119 113.754 91.6523C114.254 91.169 114.612 90.544 114.829 89.7773C115.062 89.0107 115.179 88.2107 115.179 87.3773C115.179 86.544 115.029 85.744 114.729 84.9773C114.429 84.2107 114.012 83.5857 113.479 83.1023C112.962 82.619 112.379 82.3773 111.729 82.3773C110.796 82.3773 110.004 82.819 109.354 83.7023C108.721 84.5857 108.404 85.8523 108.404 87.5023C108.404 88.419 108.596 89.244 108.979 89.9773C109.362 90.7107 109.821 91.294 110.354 91.7273C110.887 92.144 111.379 92.3523 111.829 92.3523ZM136.698 92.2023C136.182 92.719 135.523 93.169 134.723 93.5523C133.94 93.9357 133.082 94.1273 132.148 94.1273C130.082 94.1273 128.473 93.5357 127.323 92.3523C126.19 91.1523 125.623 89.544 125.623 87.5273C125.623 86.2607 125.882 85.1273 126.398 84.1273C126.932 83.1273 127.657 82.3357 128.573 81.7523C129.507 81.169 130.582 80.8773 131.798 80.8773C133.048 80.8773 134.14 81.144 135.073 81.6773C136.023 82.2107 136.765 82.944 137.298 83.8773C137.832 84.8107 138.098 85.8857 138.098 87.1023C138.098 87.3357 138.015 87.5273 137.848 87.6773C137.698 87.8273 137.507 87.9023 137.273 87.9023H128.323C128.39 89.3857 128.782 90.544 129.498 91.3773C130.215 92.2107 131.098 92.6273 132.148 92.6273C132.682 92.6273 133.107 92.4857 133.423 92.2023C133.74 91.919 134.057 91.519 134.373 91.0023C134.557 90.6357 134.84 90.494 135.223 90.5773L136.148 90.8023C136.665 90.9357 136.923 91.2273 136.923 91.6773C136.923 91.8773 136.848 92.0523 136.698 92.2023ZM131.798 82.3773C131.315 82.3773 130.84 82.5607 130.373 82.9273C129.907 83.2773 129.498 83.7523 129.148 84.3523C128.798 84.9523 128.557 85.6357 128.423 86.4023H134.873C134.773 85.219 134.448 84.2523 133.898 83.5023C133.348 82.7523 132.648 82.3773 131.798 82.3773ZM157.672 93.0273C157.672 93.2607 157.589 93.4607 157.422 93.6273C157.255 93.794 157.055 93.8773 156.822 93.8773H155.572C155.305 93.8773 155.097 93.8023 154.947 93.6523C154.797 93.4857 154.722 93.294 154.722 93.0773C154.272 93.4107 153.747 93.669 153.147 93.8523C152.547 94.0357 151.872 94.1273 151.122 94.1273C149.939 94.1273 148.922 93.8523 148.072 93.3023C147.222 92.7357 146.572 91.969 146.122 91.0023C145.689 90.019 145.472 88.894 145.472 87.6273C145.472 86.344 145.722 85.194 146.222 84.1773C146.722 83.1607 147.414 82.3607 148.297 81.7773C149.197 81.1773 150.247 80.8773 151.447 80.8773C152.114 80.8773 152.714 80.9773 153.247 81.1773C153.797 81.3773 154.289 81.6607 154.722 82.0273V75.7273C154.722 75.494 154.805 75.294 154.972 75.1273C155.139 74.9607 155.339 74.8773 155.572 74.8773H156.822C157.055 74.8773 157.255 74.9607 157.422 75.1273C157.589 75.294 157.672 75.494 157.672 75.7273V93.0273ZM151.447 82.3773C150.93 82.3773 150.439 82.6273 149.972 83.1273C149.522 83.6107 149.147 84.2523 148.847 85.0523C148.564 85.8523 148.422 86.7107 148.422 87.6273C148.422 88.544 148.547 89.3857 148.797 90.1523C149.047 90.9023 149.38 91.5023 149.797 91.9523C150.214 92.4023 150.655 92.6273 151.122 92.6273C152.172 92.6273 152.989 92.1607 153.572 91.2273C154.155 90.2773 154.447 89.0357 154.447 87.5023C154.447 86.619 154.305 85.794 154.022 85.0273C153.739 84.244 153.364 83.6107 152.897 83.1273C152.447 82.6273 151.964 82.3773 151.447 82.3773ZM170.537 94.1273C169.471 94.1273 168.562 93.8523 167.812 93.3023C167.079 92.7357 166.512 91.9607 166.112 90.9773C165.729 89.994 165.537 88.869 165.537 87.6023C165.537 86.3523 165.762 85.219 166.212 84.2023C166.679 83.1857 167.321 82.3773 168.137 81.7773C168.954 81.1773 169.912 80.8773 171.012 80.8773C172.446 80.8773 173.637 81.1857 174.587 81.8023C175.537 82.4023 176.246 83.1857 176.712 84.1523C177.179 85.119 177.412 86.144 177.412 87.2273C177.412 87.294 177.412 87.3607 177.412 87.4273C177.529 88.544 177.662 89.5607 177.812 90.4773C177.962 91.3773 178.112 92.1273 178.262 92.7273C178.279 92.7773 178.287 92.844 178.287 92.9273C178.287 93.4273 178.029 93.719 177.512 93.8023L176.087 93.9773C175.621 94.0273 175.329 93.8357 175.212 93.4023C175.146 93.1357 175.087 92.8607 175.037 92.5773C174.471 93.0607 173.812 93.444 173.062 93.7273C172.312 93.994 171.471 94.1273 170.537 94.1273ZM170.537 92.6273C171.354 92.6273 172.029 92.3607 172.562 91.8273C173.096 91.2773 173.496 90.5857 173.762 89.7523C174.046 88.919 174.187 88.0607 174.187 87.1773C174.187 87.1607 174.187 87.1273 174.187 87.0773C174.171 86.994 174.162 86.9023 174.162 86.8023C174.162 86.719 174.162 86.644 174.162 86.5773C174.112 85.844 173.962 85.1607 173.712 84.5273C173.462 83.8773 173.112 83.3607 172.662 82.9773C172.212 82.5773 171.662 82.3773 171.012 82.3773C170.662 82.3773 170.312 82.6357 169.962 83.1523C169.612 83.6523 169.321 84.3023 169.087 85.1023C168.854 85.9023 168.737 86.7357 168.737 87.6023C168.737 88.469 168.829 89.2857 169.012 90.0523C169.196 90.819 169.429 91.444 169.712 91.9273C169.996 92.394 170.271 92.6273 170.537 92.6273ZM187.28 75.7273C187.28 75.494 187.388 75.294 187.605 75.1273C187.838 74.9607 188.113 74.8773 188.43 74.8773H189.255C189.571 74.8773 189.838 74.9607 190.055 75.1273C190.271 75.294 190.38 75.494 190.38 75.7273V93.2773C190.38 93.5107 190.271 93.7107 190.055 93.8773C189.838 94.044 189.571 94.1273 189.255 94.1273H188.43C188.113 94.1273 187.838 94.044 187.605 93.8773C187.388 93.7107 187.28 93.5107 187.28 93.2773V75.7273ZM204.815 80.8773C206.049 80.8773 207.132 81.1773 208.065 81.7773C208.999 82.3607 209.724 83.1607 210.24 84.1773C210.774 85.194 211.04 86.344 211.04 87.6273C211.04 88.8607 210.79 89.969 210.29 90.9523C209.807 91.9357 209.124 92.7107 208.24 93.2773C207.357 93.844 206.324 94.1273 205.14 94.1273C203.89 94.1273 202.79 93.844 201.84 93.2773C200.907 92.694 200.174 91.9023 199.64 90.9023C199.124 89.9023 198.865 88.769 198.865 87.5023C198.865 86.219 199.107 85.0773 199.59 84.0773C200.09 83.0773 200.782 82.294 201.665 81.7273C202.565 81.1607 203.615 80.8773 204.815 80.8773ZM204.815 82.3773C204.165 82.3773 203.607 82.6023 203.14 83.0523C202.674 83.4857 202.315 84.094 202.065 84.8773C201.815 85.644 201.69 86.519 201.69 87.5023C201.69 89.269 202.024 90.569 202.69 91.4023C203.357 92.219 204.174 92.6273 205.14 92.6273C205.89 92.6273 206.49 92.3857 206.94 91.9023C207.39 91.419 207.715 90.794 207.915 90.0273C208.115 89.2607 208.215 88.4607 208.215 87.6273C208.215 86.094 207.915 84.8357 207.315 83.8523C206.715 82.869 205.882 82.3773 204.815 82.3773Z" fill="#CFF431"/>
<path d="M297.436 19.6988H15.7812V105.801H297.436V19.6988Z" stroke="#CFF431" stroke-width="2" stroke-miterlimit="10"/>
<path d="M295.884 106.647L288.351 118.471L290.742 105.831L281.52 118.471L285.277 105.831L274.006 118.471L279.129 105.831L268.028 117.417L272.639 105.831L262.051 117.417L266.833 105.831L255.562 117.417L260.514 105.831L247.023 118.471L253.854 105.831L240.192 117.417L245.998 105.831L232.678 117.417L237.972 105.831L223.968 117.417L230.116 105.831L214.746 117.417L220.211 105.831L205.354 117.417L211.843 105.831L197.498 117.417L204.329 105.831L190.325 117.417L197.498 105.831L181.616 118.471L188.618 105.831L172.394 118.471L181.616 105.831" stroke="#CFF431" stroke-width="2"/>
<path d="M63.9217 105.831L58.001 117.999L70.517 105.831L65.9174 117.417L79.3973 105.831L72.2247 117.417L86.2283 105.831L79.3973 117.417L93.7425 105.831L87.253 117.417L102.111 105.831L96.6457 117.417L112.016 105.831L105.868 117.417L119.871 105.831L114.577 117.417L127.898 105.831L122.091 117.417L135.753 105.831L128.922 118.471L142.414 105.831L137.461 117.417L148.732 105.831L143.95 117.417L154.539 105.831L149.928 117.417L161.028 105.831L155.905 118.471L167.176 105.831L163.419 118.471L172.641 105.831L170.25 118.471L180.896 105.831" stroke="#CFF431" stroke-width="2"/>
<path d="M4.95907 117.973L15.7598 94.6227L4.62598 106.008L15.7598 89.9518L4.95907 95.553L15.7598 81.7368L4.62598 87.3379L15.7598 73.0239L4.95907 77.5048L15.7598 66.6759L4.95907 69.4143L15.7598 59.7056H5.19698L15.7598 49.8724L4.62598 48.2543L15.7598 39.5414L5.19698 37.6743L15.7598 30.455L4.95907 25.6007L15.7598 20.6219" stroke="#CFF431" stroke-width="2"/>
<path d="M4.61768 118.563L18.2648 106.698L13.0574 118.058L24.9181 106.698L20.0352 118.563L31.2302 106.698L27.0129 118.563L36.3563 108.044L33.7913 118.058L43.5131 106.698L38.3953 118.563L48.7486 108.044L45.886 118.058L54.5251 108.044L52.9302 118.058L63.3599 106.698" stroke="#CFF431" stroke-width="2"/>
</svg>
