<svg id="Layer_1" data-name="Layer 1" xmlns="http://www.w3.org/2000/svg" viewBox="0 0 629.44 143.26"><defs><style>.cls-1,.cls-2{fill:none;stroke:#cff431;stroke-width:5px;}.cls-1{stroke-miterlimit:10;}.cls-3,.cls-4{fill:#cff431;}.cls-4{font-size:57.64px;font-family:ArialMT, Arial;letter-spacing:-0.02em;}</style></defs><path class="cls-1" d="M605.06,6.17,6.92,6.26l0,121.26L605,127.43Z" transform="translate(-3.42 -3.36)"/><path class="cls-2" d="M602.12,5.53l28.25,16.3v122.3H19.49L5.37,126.66" transform="translate(-3.42 -3.36)"/><path class="cls-3" d="M100.83,81.8H95.68L76.12,51.86V81.8H71V43h5.15L95.74,73V43h5.09Zm39.81,0a10,10,0,0,1-.69-3,11,11,0,0,1-8.22,3.58,10.28,10.28,0,0,1-7-2.4A7.89,7.89,0,0,1,122,73.79a8.12,8.12,0,0,1,3.42-7q3.44-2.51,9.65-2.51h4.81V62a5.5,5.5,0,0,0-1.55-4.11,6.14,6.14,0,0,0-4.56-1.55,7.19,7.19,0,0,0-4.43,1.33,4,4,0,0,0-1.79,3.23h-5a6.74,6.74,0,0,1,1.52-4.16,10.53,10.53,0,0,1,4.16-3.2,14,14,0,0,1,5.79-1.18c3.33,0,5.93.84,7.82,2.51a9,9,0,0,1,2.93,6.86V75.05a16.16,16.16,0,0,0,1,6.32v.43ZM132.45,78a8.67,8.67,0,0,0,4.4-1.2,7.3,7.3,0,0,0,3-3.12V67.79H136q-9.08,0-9.07,5.31a4.49,4.49,0,0,0,1.54,3.63A6,6,0,0,0,132.45,78ZM184,81.8a10.69,10.69,0,0,1-.69-3,11,11,0,0,1-8.22,3.58,10.27,10.27,0,0,1-7-2.4,7.87,7.87,0,0,1-2.73-6.14,8.12,8.12,0,0,1,3.42-7q3.44-2.51,9.66-2.51h4.8V62a5.5,5.5,0,0,0-1.55-4.11,6.14,6.14,0,0,0-4.56-1.55,7.19,7.19,0,0,0-4.43,1.33,4,4,0,0,0-1.79,3.23h-5a6.8,6.8,0,0,1,1.52-4.16,10.53,10.53,0,0,1,4.16-3.2,14,14,0,0,1,5.79-1.18q5,0,7.82,2.51a9,9,0,0,1,2.94,6.86V75.05a16.18,16.18,0,0,0,1,6.32v.43ZM175.83,78a8.64,8.64,0,0,0,4.4-1.2,7.24,7.24,0,0,0,3-3.12V67.79h-3.87q-9.07,0-9.07,5.31a4.5,4.5,0,0,0,1.55,3.63A5.93,5.93,0,0,0,175.83,78Zm47.71-20.67a14.26,14.26,0,0,0-2.43-.19c-3.24,0-5.43,1.38-6.59,4.14V81.8h-4.93V52.93h4.8l.08,3.33a7.68,7.68,0,0,1,6.88-3.87,5,5,0,0,1,2.19.38Zm94.8,21.58q-2.88,3.39-8.46,3.39c-3.08,0-5.42-.89-7-2.67s-2.41-4.45-2.43-8V52.93h4.93V71.58q0,6.56,5.34,6.56c3.77,0,6.28-1.4,7.52-4.22v-21h4.94V81.8h-4.69Zm32.68-33v7h5.39v3.81H351V74.65a4.06,4.06,0,0,0,.72,2.61,3.06,3.06,0,0,0,2.46.85,11.51,11.51,0,0,0,2.35-.32v4a14.6,14.6,0,0,1-3.79.53,6.15,6.15,0,0,1-5-2,8.61,8.61,0,0,1-1.68-5.68V56.74h-5.26V52.93h5.26v-7Zm23,21.15a17.1,17.1,0,0,1,1.66-7.63,12.52,12.52,0,0,1,4.64-5.23,12.76,12.76,0,0,1,6.8-1.84,12.13,12.13,0,0,1,9.53,4.09q3.66,4.08,3.65,10.85v.35a17.24,17.24,0,0,1-1.62,7.58,12.17,12.17,0,0,1-4.62,5.2,12.67,12.67,0,0,1-6.88,1.87,12.19,12.19,0,0,1-9.53-4.08Q374,74.17,374,67.44Zm5,.59a12.38,12.38,0,0,0,2.22,7.71,7.57,7.57,0,0,0,11.95,0q2.22-3,2.22-8.28a12.24,12.24,0,0,0-2.27-7.68,7.47,7.47,0,0,0-11.87,0Q379,62.27,379,67.68Zm55.13-10.32a14.26,14.26,0,0,0-2.43-.19c-3.24,0-5.43,1.38-6.59,4.14V81.8h-4.93V52.93H425l.08,3.33a7.68,7.68,0,0,1,6.88-3.87,5,5,0,0,1,2.19.38ZM457.7,81.8h-4.94V52.93h4.94Zm-5.34-36.53a3,3,0,0,1,.72-2,3.3,3.3,0,0,1,4.38,0,3,3,0,0,1,.74,2,2.84,2.84,0,0,1-.74,2,2.91,2.91,0,0,1-5.1-2ZM497.1,81.8a10.69,10.69,0,0,1-.69-3,11,11,0,0,1-8.22,3.58,10.31,10.31,0,0,1-7-2.4,7.89,7.89,0,0,1-2.72-6.14,8.12,8.12,0,0,1,3.42-7q3.44-2.51,9.66-2.51h4.8V62a5.5,5.5,0,0,0-1.55-4.11,6.14,6.14,0,0,0-4.56-1.55,7.19,7.19,0,0,0-4.43,1.33A4,4,0,0,0,484,60.93h-5a6.8,6.8,0,0,1,1.52-4.16,10.53,10.53,0,0,1,4.16-3.2,14,14,0,0,1,5.79-1.18q5,0,7.82,2.51a9,9,0,0,1,2.94,6.86V75.05a16.18,16.18,0,0,0,1,6.32v.43ZM488.91,78a8.64,8.64,0,0,0,4.4-1.2,7.24,7.24,0,0,0,3-3.12V67.79h-3.87q-9.07,0-9.07,5.31a4.5,4.5,0,0,0,1.55,3.63A5.93,5.93,0,0,0,488.91,78ZM528,81.8h-4.94v-41H528Z" transform="translate(-3.42 -3.36)"/><text class="cls-4" transform="translate(255.51 78.43)">T</text></svg>