<svg id="Layer_1" data-name="Layer 1" xmlns="http://www.w3.org/2000/svg" viewBox="0 0 247.33 86.54"><defs><style>.cls-1,.cls-3{fill:none;stroke-width:4px;}.cls-1,.cls-2,.cls-3{stroke:#f270d9;}.cls-1,.cls-2{stroke-miterlimit:10;}.cls-2{fill:#f270d9;stroke-width:0.5px;}</style></defs><path class="cls-1" d="M24.92,2,256,1.57l-1.6,70.71-231.09.41Z" transform="translate(-21.27 0.43)"/><path class="cls-2" d="M43.61,47.52,44,29.63h6.72a8.25,8.25,0,0,1,3.27.54,4,4,0,0,1,1.9,1.67,4.29,4.29,0,0,1,.65,2.35,4,4,0,0,1-.67,2.16A4.53,4.53,0,0,1,54,38a4.54,4.54,0,0,1,2.46,1.62,4.21,4.21,0,0,1,.81,2.71,5.2,5.2,0,0,1-.59,2.34,4.64,4.64,0,0,1-1.34,1.67,5.62,5.62,0,0,1-2,.89,11.79,11.79,0,0,1-2.88.3Zm2.61-10.38h3.87a8.92,8.92,0,0,0,2.26-.22A2.57,2.57,0,0,0,53.73,36a2.61,2.61,0,0,0,.49-1.56,2.67,2.67,0,0,0-.39-1.56,2,2,0,0,0-1.2-.93,9.94,9.94,0,0,0-2.71-.25H46.34ZM46,45.41h4.45a9.83,9.83,0,0,0,1.62-.09,4.08,4.08,0,0,0,1.38-.49,2.67,2.67,0,0,0,.92-1,3.15,3.15,0,0,0,.39-1.52,2.87,2.87,0,0,0-.47-1.73,2.57,2.57,0,0,0-1.41-1,8.62,8.62,0,0,0-2.6-.3H46.17Zm20.65,2.07.41-17.89,12.94,0,0,2.11-10.57,0-.12,5.48,9.9,0,0,2.1-9.9,0-.14,6.09,11,0,0,2.11Zm22.21-5.8,2.23-.2a4.93,4.93,0,0,0,.69,2.21,3.93,3.93,0,0,0,1.77,1.39,6.82,6.82,0,0,0,2.73.52,6.65,6.65,0,0,0,2.41-.41,3.45,3.45,0,0,0,1.56-1.1,2.63,2.63,0,0,0,.55-1.54,2.24,2.24,0,0,0-.46-1.46A3.42,3.42,0,0,0,98.79,40a31,31,0,0,0-3.17-.86,16.1,16.1,0,0,1-3.43-1.12,4.72,4.72,0,0,1-1.88-1.65,4.06,4.06,0,0,1-.57-2.23,4.6,4.6,0,0,1,.83-2.53,4.93,4.93,0,0,1,2.28-1.8,8.62,8.62,0,0,1,3.3-.62,8.77,8.77,0,0,1,3.49.64,4.8,4.8,0,0,1,2.3,1.88,5.28,5.28,0,0,1,.82,2.81l-2.28.18a3.52,3.52,0,0,0-1.19-2.56,4.67,4.67,0,0,0-3.09-.86,5.06,5.06,0,0,0-3.15.8A2.37,2.37,0,0,0,92,34a2,2,0,0,0,.66,1.59,9.15,9.15,0,0,0,3.53,1.27A22.51,22.51,0,0,1,100.16,38a5.31,5.31,0,0,1,2.27,1.82,4.29,4.29,0,0,1,.68,2.54,5,5,0,0,1-.87,2.7,5.64,5.64,0,0,1-2.41,2,8.18,8.18,0,0,1-3.45.7,10.14,10.14,0,0,1-4.07-.7,5.52,5.52,0,0,1-2.52-2.12A5.89,5.89,0,0,1,88.89,41.68ZM117,47.38l.36-15.78h-5.9l0-2.11,14.19,0,0,2.11h-5.92l-.37,15.78Zm17,0,.41-17.89,12.93,0,0,2.12-10.58,0L136.67,37l9.9,0,0,2.1-9.9,0-.14,6.09,11,0-.05,2.11Zm22.77,0,.41-17.9h2.37l-.36,15.78,8.81,0,0,2.11Zm20.17,0,.41-17.9h2.37l-.36,15.78,8.81,0-.05,2.11Zm20.31,0,.41-17.89,12.94,0,0,2.11-10.57,0-.12,5.48,9.9,0-.05,2.1-9.9,0-.14,6.09,11,0,0,2.11Zm22.85,0,.41-17.89H223l9.08,14,.32-14h2.27l-.41,17.89h-2.43l-9.07-14-.32,14Z" transform="translate(-21.27 0.43)"/><path class="cls-3" d="M255.89,2.84l10.69,9.49L265,83.64l-236,.47L23.72,73.93" transform="translate(-21.27 0.43)"/></svg>