<svg id="Layer_1" data-name="Layer 1" xmlns="http://www.w3.org/2000/svg" viewBox="0 0 343 98.86"><defs><style>.cls-1{fill:#1dfff4;}.cls-2,.cls-3{fill:none;stroke:#1dfff4;stroke-width:4px;}.cls-2{stroke-miterlimit:10;}</style></defs><path class="cls-1" d="M46.09,99.59H59.23v3H42.41V74.86h3.68ZM81.15,103a9,9,0,0,1-6.82-2.74,10.26,10.26,0,0,1-2.63-7.37V92.2a12.44,12.44,0,0,1,1.16-5.46A9.16,9.16,0,0,1,76.14,83a8.19,8.19,0,0,1,4.57-1.37A7.7,7.7,0,0,1,87,84.24c1.49,1.77,2.23,4.29,2.23,7.58v1.47h-14A7.39,7.39,0,0,0,77,98.22a5.64,5.64,0,0,0,4.35,1.87,6.24,6.24,0,0,0,3.16-.76,8,8,0,0,0,2.26-2L88.92,99A8.65,8.65,0,0,1,81.15,103Zm-.44-18.47a4.68,4.68,0,0,0-3.58,1.56,7.49,7.49,0,0,0-1.79,4.34H85.66v-.26A6.66,6.66,0,0,0,84.21,86,4.41,4.41,0,0,0,80.71,84.49ZM111.58,103a9,9,0,0,1-6.82-2.74,10.26,10.26,0,0,1-2.63-7.37V92.2a12.44,12.44,0,0,1,1.16-5.46A9.16,9.16,0,0,1,106.57,83a8.19,8.19,0,0,1,4.57-1.37,7.74,7.74,0,0,1,6.25,2.64c1.48,1.77,2.22,4.29,2.22,7.58v1.47h-14a7.39,7.39,0,0,0,1.78,4.93,5.6,5.6,0,0,0,4.34,1.87,6.21,6.21,0,0,0,3.16-.76,8,8,0,0,0,2.26-2L119.35,99A8.65,8.65,0,0,1,111.58,103Zm-.44-18.47a4.68,4.68,0,0,0-3.58,1.56,7.49,7.49,0,0,0-1.79,4.34h10.32v-.26A6.6,6.6,0,0,0,114.64,86,4.41,4.41,0,0,0,111.14,84.49Zm32.28.65a10.61,10.61,0,0,0-1.74-.13A4.63,4.63,0,0,0,137,88v14.62h-3.52V82h3.42l.06,2.38a5.5,5.5,0,0,1,4.91-2.76,3.78,3.78,0,0,1,1.57.26Zm37.7-10.28,9.07,22.62,9.06-22.62H204v27.72h-3.65V91.78l.34-11.65-9.1,22.45h-2.8l-9.09-22.39.36,11.59v10.8H176.4V74.86ZM228.2,103a9,9,0,0,1-6.82-2.74,10.26,10.26,0,0,1-2.63-7.37V92.2a12.44,12.44,0,0,1,1.16-5.46A9.16,9.16,0,0,1,223.19,83a8.19,8.19,0,0,1,4.57-1.37A7.7,7.7,0,0,1,234,84.24c1.49,1.77,2.23,4.29,2.23,7.58v1.47h-14A7.39,7.39,0,0,0,224,98.22a5.64,5.64,0,0,0,4.35,1.87,6.24,6.24,0,0,0,3.16-.76,8,8,0,0,0,2.26-2L236,99A8.62,8.62,0,0,1,228.2,103Zm-.44-18.47a4.68,4.68,0,0,0-3.58,1.56,7.49,7.49,0,0,0-1.79,4.34h10.32v-.26A6.66,6.66,0,0,0,231.26,86,4.41,4.41,0,0,0,227.76,84.49ZM258.63,103a9,9,0,0,1-6.82-2.74,10.26,10.26,0,0,1-2.63-7.37V92.2a12.44,12.44,0,0,1,1.16-5.46A9.16,9.16,0,0,1,253.62,83a8.19,8.19,0,0,1,4.57-1.37,7.7,7.7,0,0,1,6.24,2.64c1.49,1.77,2.23,4.29,2.23,7.58v1.47h-14a7.44,7.44,0,0,0,1.78,4.93,5.62,5.62,0,0,0,4.34,1.87,6.24,6.24,0,0,0,3.16-.76,8,8,0,0,0,2.26-2L266.4,99A8.65,8.65,0,0,1,258.63,103Zm-.44-18.47a4.68,4.68,0,0,0-3.58,1.56,7.49,7.49,0,0,0-1.79,4.34h10.32v-.26A6.66,6.66,0,0,0,261.69,86,4.41,4.41,0,0,0,258.19,84.49Zm32.28.65a10.53,10.53,0,0,0-1.74-.13A4.64,4.64,0,0,0,284,88v14.62h-3.52V82h3.42l.06,2.38a5.49,5.49,0,0,1,4.91-2.76,3.78,3.78,0,0,1,1.57.26Z" transform="translate(-1.16 -45.14)"/><path class="cls-2" d="M328.42,47.19,3.69,47.25l0,83.34,324.73-.06Z" transform="translate(-1.16 -45.14)"/><path class="cls-3" d="M326.82,46.75,342.16,58v84H10.51L2.84,130" transform="translate(-1.16 -45.14)"/></svg>