<svg width="68" height="446" viewBox="0 0 68 446" fill="none" xmlns="http://www.w3.org/2000/svg">
<circle cx="33.292" cy="93.5048" r="22.5791" stroke="#CFF431" stroke-width="2"/>
<circle cx="33.292" cy="157.13" r="22.5791" stroke="#CFF431" stroke-width="2"/>
<circle cx="33.292" cy="220.755" r="22.5791" stroke="#CFF431" stroke-width="2"/>
<circle cx="33.292" cy="290.372" r="22.5791" stroke="#CFF431" stroke-width="2"/>
<circle cx="33.292" cy="357.739" r="22.5791" stroke="#CFF431" stroke-width="2"/>
<circle cx="33.292" cy="422.116" r="22.5791" stroke="#CFF431" stroke-width="2"/>
<path d="M8.95496 44.4003C8.36918 44.9861 8.36918 45.9358 8.95496 46.5216L18.5009 56.0675C19.0867 56.6533 20.0364 56.6533 20.6222 56.0675C21.208 55.4818 21.208 54.532 20.6222 53.9462L12.1369 45.4609L20.6222 36.9757C21.208 36.3899 21.208 35.4401 20.6222 34.8543C20.0364 34.2686 19.0867 34.2686 18.5009 34.8543L8.95496 44.4003ZM58.8638 46.5216C59.4496 45.9358 59.4496 44.9861 58.8638 44.4003L49.3179 34.8543C48.7321 34.2686 47.7823 34.2686 47.1966 34.8543C46.6108 35.4401 46.6108 36.3899 47.1966 36.9757L55.6818 45.4609L47.1966 53.9462C46.6108 54.532 46.6108 55.4818 47.1966 56.0675C47.7823 56.6533 48.7321 56.6533 49.3179 56.0675L58.8638 46.5216ZM10.0156 46.9609L57.8032 46.9609L57.8032 43.9609L10.0156 43.9609L10.0156 46.9609Z" fill="#1DFFF4"/>
<path d="M15.7284 14.3939V14.4169C16.2191 14.4169 16.8401 14.7006 17.5914 15.2679C17.9747 15.5593 18.2967 15.9963 18.5574 16.5789C18.8181 17.1616 18.9484 17.8286 18.9484 18.5799C18.9484 20.0059 18.3811 21.1789 17.2464 22.0989C16.1271 23.0036 14.6551 23.4559 12.8304 23.4559C11.0211 23.4559 9.54907 23.0036 8.41441 22.0989C7.27974 21.1943 6.71241 20.0213 6.71241 18.5799C6.71241 17.8286 6.84274 17.1616 7.10341 16.5789C7.36407 15.9963 7.67841 15.5593 8.04641 15.2679C8.78241 14.7006 9.41107 14.4169 9.93241 14.4169V14.3939C9.47241 14.3939 8.91274 14.0949 8.25341 13.4969C7.59407 12.8836 7.26441 12.0249 7.26441 10.9209C7.26441 9.81692 7.72441 8.83559 8.64441 7.97692C9.56441 7.10292 10.9597 6.66592 12.8304 6.66592C14.7011 6.65059 16.0964 7.07992 17.0164 7.95392C17.9364 8.82792 18.3964 9.83225 18.3964 10.9669C18.3964 11.5343 18.2814 12.0556 18.0514 12.5309C17.8367 13.0063 17.5684 13.3743 17.2464 13.6349C16.6177 14.1409 16.1117 14.3939 15.7284 14.3939ZM13.1294 15.3599H12.5314C11.3354 15.3599 10.4077 15.6359 9.74841 16.1879C9.10441 16.7246 8.78241 17.4759 8.78241 18.4419C8.78241 19.4079 9.15041 20.1746 9.88641 20.7419C10.6224 21.3093 11.6037 21.5929 12.8304 21.5929C14.0571 21.5929 15.0307 21.3093 15.7514 20.7419C16.4874 20.1593 16.8554 19.3926 16.8554 18.4419C16.8554 17.4913 16.5257 16.7399 15.8664 16.1879C15.2224 15.6359 14.3101 15.3599 13.1294 15.3599ZM16.3264 11.1739C16.3264 10.4073 16.0197 9.77092 15.4064 9.26492C14.8084 8.74359 13.9497 8.48292 12.8304 8.48292C11.7111 8.48292 10.8447 8.74359 10.2314 9.26492C9.63341 9.77092 9.33441 10.4073 9.33441 11.1739C9.33441 11.7106 9.44941 12.1706 9.67941 12.5539C9.90941 12.9373 10.2084 13.2209 10.5764 13.4049C11.2817 13.7269 11.9257 13.8879 12.5084 13.8879C13.0911 13.8879 13.5664 13.8496 13.9344 13.7729C14.3024 13.6963 14.6781 13.5736 15.0614 13.4049C15.4447 13.2209 15.7514 12.9373 15.9814 12.5539C16.2114 12.1706 16.3264 11.7106 16.3264 11.1739ZM40.0716 23.2949H37.8866C37.5339 23.2949 37.2732 23.2259 37.1046 23.0879C36.9512 22.9346 36.8746 22.6816 36.8746 22.3289V16.2799C36.8746 15.3906 36.6599 14.7006 36.2306 14.2099C35.8166 13.7193 35.1956 13.4739 34.3676 13.4739C33.1562 13.4739 32.2056 14.0029 31.5156 15.0609C31.6076 15.3369 31.6536 15.6436 31.6536 15.9809V21.7539H32.9416C33.1256 21.7539 33.2176 21.8459 33.2176 22.0299V23.0189C33.2176 23.2029 33.1256 23.2949 32.9416 23.2949H28.5486C28.3492 23.2949 28.2496 23.2029 28.2496 23.0189V22.0299C28.2496 21.8459 28.3492 21.7539 28.5486 21.7539H29.7676V16.2799C29.7676 15.3906 29.5529 14.7006 29.1236 14.2099C28.6942 13.7193 28.0656 13.4739 27.2376 13.4739C26.6089 13.4739 26.1259 13.5736 25.7886 13.7729C25.4666 13.9569 25.2212 14.1256 25.0526 14.2789C24.8839 14.4169 24.7459 14.5549 24.6386 14.6929C24.4546 14.9383 24.3012 15.1913 24.1786 15.4519V21.7539H25.3056C25.4896 21.7539 25.5816 21.8459 25.5816 22.0299V23.0189C25.5816 23.2029 25.4896 23.2949 25.3056 23.2949H21.0046C20.8052 23.2949 20.7056 23.2029 20.7056 23.0189V22.0299C20.7056 21.8459 20.8052 21.7539 21.0046 21.7539H22.2696V13.5199H21.0046C20.8052 13.5199 20.7056 13.4279 20.7056 13.2439V12.2549C20.7056 12.0709 20.8052 11.9789 21.0046 11.9789H23.2586C23.5192 11.9789 23.7032 12.0326 23.8106 12.1399C23.9332 12.2319 23.9946 12.4083 23.9946 12.6689L23.9486 13.8189H24.0176C24.8149 12.4849 26.0492 11.8179 27.7206 11.8179C29.4072 11.8179 30.5572 12.4543 31.1706 13.7269C32.0446 12.4543 33.2789 11.8179 34.8736 11.8179C36.1002 11.8179 37.0509 12.1783 37.7256 12.8989C38.4156 13.6196 38.7606 14.5933 38.7606 15.8199L38.7836 21.7539H40.0716C40.2709 21.7539 40.3706 21.8459 40.3706 22.0299V23.0189C40.3706 23.2029 40.2709 23.2949 40.0716 23.2949ZM61.387 23.2949H59.202C58.8493 23.2949 58.5887 23.2259 58.42 23.0879C58.2667 22.9346 58.19 22.6816 58.19 22.3289V16.2799C58.19 15.3906 57.9753 14.7006 57.546 14.2099C57.132 13.7193 56.511 13.4739 55.683 13.4739C54.4717 13.4739 53.521 14.0029 52.831 15.0609C52.923 15.3369 52.969 15.6436 52.969 15.9809V21.7539H54.257C54.441 21.7539 54.533 21.8459 54.533 22.0299V23.0189C54.533 23.2029 54.441 23.2949 54.257 23.2949H49.864C49.6647 23.2949 49.565 23.2029 49.565 23.0189V22.0299C49.565 21.8459 49.6647 21.7539 49.864 21.7539H51.083V16.2799C51.083 15.3906 50.8683 14.7006 50.439 14.2099C50.0097 13.7193 49.381 13.4739 48.553 13.4739C47.9243 13.4739 47.4413 13.5736 47.104 13.7729C46.782 13.9569 46.5367 14.1256 46.368 14.2789C46.1993 14.4169 46.0613 14.5549 45.954 14.6929C45.77 14.9383 45.6167 15.1913 45.494 15.4519V21.7539H46.621C46.805 21.7539 46.897 21.8459 46.897 22.0299V23.0189C46.897 23.2029 46.805 23.2949 46.621 23.2949H42.32C42.1207 23.2949 42.021 23.2029 42.021 23.0189V22.0299C42.021 21.8459 42.1207 21.7539 42.32 21.7539H43.585V13.5199H42.32C42.1207 13.5199 42.021 13.4279 42.021 13.2439V12.2549C42.021 12.0709 42.1207 11.9789 42.32 11.9789H44.574C44.8347 11.9789 45.0187 12.0326 45.126 12.1399C45.2487 12.2319 45.31 12.4083 45.31 12.6689L45.264 13.8189H45.333C46.1303 12.4849 47.3647 11.8179 49.036 11.8179C50.7227 11.8179 51.8727 12.4543 52.486 13.7269C53.36 12.4543 54.5943 11.8179 56.189 11.8179C57.4157 11.8179 58.3663 12.1783 59.041 12.8989C59.731 13.6196 60.076 14.5933 60.076 15.8199L60.099 21.7539H61.387C61.5863 21.7539 61.686 21.8459 61.686 22.0299V23.0189C61.686 23.2029 61.5863 23.2949 61.387 23.2949Z" fill="#1DFFF4"/>
</svg>
