<svg width="107" height="37" viewBox="0 0 107 37" fill="none" xmlns="http://www.w3.org/2000/svg">
<path d="M54.7688 26.363C54.7688 26.5496 54.7022 26.7096 54.5688 26.843C54.4355 26.9763 54.2755 27.043 54.0888 27.043H52.8888C52.7022 27.043 52.5422 26.9763 52.4088 26.843C52.2755 26.7096 52.2088 26.5496 52.2088 26.363V13.123C52.2088 13.083 52.2088 13.0563 52.2088 13.043H49.3288C49.1422 13.043 48.9822 12.9896 48.8488 12.883C48.7155 12.763 48.6488 12.6163 48.6488 12.443C48.6488 12.2696 48.7155 12.1296 48.8488 12.023C48.9822 11.903 49.1422 11.843 49.3288 11.843H57.6488C57.8355 11.843 57.9955 11.903 58.1288 12.023C58.2622 12.1296 58.3288 12.2696 58.3288 12.443C58.3288 12.6163 58.2622 12.763 58.1288 12.883C57.9955 12.9896 57.8355 13.043 57.6488 13.043H54.7688V13.123V26.363ZM67.8948 25.843C68.3348 25.843 68.5548 26.043 68.5548 26.443C68.5548 26.843 68.3348 27.043 67.8948 27.043H60.0948C59.6548 27.043 59.4348 26.823 59.4348 26.383V12.503C59.4348 12.063 59.6548 11.843 60.0948 11.843H67.8948C68.3348 11.843 68.5548 12.043 68.5548 12.443C68.5548 12.843 68.3348 13.043 67.8948 13.043H61.9948V18.963H67.3548C67.7948 18.963 68.0148 19.163 68.0148 19.563C68.0148 19.963 67.7948 20.163 67.3548 20.163H61.9948V25.843H67.8948ZM79.3235 26.263C79.5102 26.5563 79.6035 26.7563 79.6035 26.863C79.6035 26.983 79.4835 27.043 79.2435 27.043H77.7835C77.5702 27.043 77.4035 26.9563 77.2835 26.783L73.3835 20.563C73.3702 20.5363 73.3568 20.5163 73.3435 20.503H73.2835C73.1502 20.503 73.0168 20.503 72.8835 20.503C72.7502 20.4896 72.6102 20.483 72.4635 20.483V26.363C72.4635 26.5496 72.3968 26.7096 72.2635 26.843C72.1302 26.9763 71.9702 27.043 71.7835 27.043H70.7835C70.5968 27.043 70.4368 26.9763 70.3035 26.843C70.1702 26.7096 70.1035 26.5496 70.1035 26.363V12.423C70.1035 12.2496 70.1568 12.103 70.2635 11.983C70.3835 11.863 70.5302 11.7963 70.7035 11.783C71.1702 11.743 71.6102 11.7096 72.0235 11.683C72.4502 11.6563 72.8568 11.643 73.2435 11.643C77.7768 11.643 80.0435 13.2296 80.0435 16.403C80.0435 17.5096 79.6635 18.3963 78.9035 19.063C78.1435 19.7163 77.0302 20.1496 75.5635 20.363L79.3235 26.263ZM72.4635 12.863V19.263C72.8635 19.2896 73.2435 19.303 73.6035 19.303C75.0702 19.303 76.1168 19.0763 76.7435 18.623C77.3702 18.1696 77.6835 17.4296 77.6835 16.403C77.6835 15.1096 77.3568 14.1963 76.7035 13.663C76.0635 13.1163 74.9568 12.843 73.3835 12.843C73.2768 12.843 73.1302 12.8496 72.9435 12.863C72.7568 12.863 72.5968 12.863 72.4635 12.863ZM88.8935 12.523C88.8935 12.3363 88.9602 12.1763 89.0935 12.043C89.2268 11.9096 89.3868 11.843 89.5735 11.843H90.7735C90.9602 11.843 91.1202 11.9096 91.2535 12.043C91.3868 12.1763 91.4535 12.3363 91.4535 12.523V22.103C91.4535 23.6763 91.0068 24.9296 90.1135 25.863C89.2202 26.783 87.9602 27.243 86.3335 27.243C84.7068 27.243 83.4468 26.783 82.5535 25.863C81.6602 24.9296 81.2135 23.6763 81.2135 22.103V12.523C81.2135 12.3363 81.2802 12.1763 81.4135 12.043C81.5468 11.9096 81.7068 11.843 81.8935 11.843H83.0935C83.2802 11.843 83.4402 11.9096 83.5735 12.043C83.7068 12.1763 83.7735 12.3363 83.7735 12.523V22.103C83.7735 23.343 83.9868 24.3096 84.4135 25.003C84.8402 25.6963 85.4802 26.043 86.3335 26.043C87.1868 26.043 87.8268 25.6963 88.2535 25.003C88.6802 24.3096 88.8935 23.343 88.8935 22.103V12.523ZM99.1857 21.763C98.7457 21.763 98.5257 21.563 98.5257 21.163C98.5257 20.763 98.7457 20.563 99.1857 20.563H103.786C104.239 20.563 104.466 20.783 104.466 21.223C104.466 22.4096 104.259 23.4563 103.846 24.363C103.432 25.2696 102.832 25.9763 102.046 26.483C101.272 26.9896 100.319 27.243 99.1857 27.243C98.0257 27.243 96.9724 26.943 96.0257 26.343C95.079 25.7296 94.3257 24.8763 93.7657 23.783C93.219 22.6896 92.9457 21.4163 92.9457 19.963C92.9457 18.8563 93.1057 17.8096 93.4257 16.823C93.7457 15.823 94.179 14.9363 94.7257 14.163C95.2857 13.3763 95.9257 12.763 96.6457 12.323C97.379 11.8696 98.1524 11.643 98.9657 11.643C99.9924 11.643 100.872 11.8496 101.606 12.263C102.352 12.663 102.959 13.183 103.426 13.823C103.892 14.4496 104.219 15.1163 104.406 15.823C104.419 15.863 104.426 15.923 104.426 16.003C104.426 16.3496 104.226 16.5363 103.826 16.563L102.586 16.623C102.212 16.6363 101.972 16.4363 101.866 16.023C101.746 15.5296 101.559 15.043 101.306 14.563C101.052 14.0696 100.732 13.663 100.346 13.343C99.9724 13.0096 99.5124 12.843 98.9657 12.843C98.4724 12.843 98.0124 13.0563 97.5857 13.483C97.1724 13.8963 96.8057 14.4563 96.4857 15.163C96.179 15.8563 95.939 16.623 95.7657 17.463C95.5924 18.303 95.5057 19.1363 95.5057 19.963C95.5057 21.1096 95.6657 22.143 95.9857 23.063C96.3057 23.983 96.7457 24.7096 97.3057 25.243C97.8657 25.7763 98.4924 26.043 99.1857 26.043C99.7057 26.043 100.159 25.8563 100.546 25.483C100.932 25.0963 101.239 24.583 101.466 23.943C101.706 23.2896 101.846 22.563 101.886 21.763H99.1857Z" fill="white"/>
<path d="M19.5254 1.06641L2.04883 18.543M2.04883 18.543L19.5254 36.0195M2.04883 18.543H31.7478" stroke="white" stroke-width="2"/>
</svg>
