<svg width="82" height="42" viewBox="0 0 82 42" fill="none" xmlns="http://www.w3.org/2000/svg">
<path d="M28.5154 21.17C28.5154 26.2958 26.9721 30.838 24.5984 34.0404C22.2244 37.2432 19.144 38.9768 15.9636 38.9768C12.7833 38.9768 9.70282 37.2432 7.32886 34.0404C4.95515 30.838 3.41187 26.2958 3.41187 21.17C3.41187 16.0443 4.95515 11.5021 7.32886 8.29968C9.70282 5.0969 12.7833 3.36328 15.9636 3.36328C19.144 3.36328 22.2244 5.0969 24.5984 8.29968C26.9721 11.5021 28.5154 16.0443 28.5154 21.17Z" stroke="#FF0000" stroke-width="5"/>
<path d="M79.0283 21.17C79.0283 26.2958 77.4851 30.838 75.1113 34.0404C72.7374 37.2432 69.6569 38.9768 66.4766 38.9768C63.2962 38.9768 60.2158 37.2432 57.8418 34.0404C55.4681 30.838 53.9248 26.2958 53.9248 21.17C53.9248 16.0443 55.4681 11.5021 57.8418 8.29968C60.2158 5.0969 63.2962 3.36328 66.4766 3.36328C69.6569 3.36328 72.7374 5.0969 75.1113 8.29968C77.4851 11.5021 79.0283 16.0443 79.0283 21.17Z" stroke="#FF0000" stroke-width="5"/>
<ellipse cx="71.8808" cy="22.1008" rx="6.64003" ry="8.95825" fill="#FF0000"/>
<ellipse cx="23.2799" cy="22.5681" rx="6.64003" ry="8.95825" fill="#FF0000"/>
</svg>
