<svg width="41" height="34" viewBox="0 0 41 34" fill="none" xmlns="http://www.w3.org/2000/svg">
<g clip-path="url(#clip0)">
<path d="M12.6533 25.6561C10.1598 25.5588 7.87828 24.0905 6.62338 21.975C7.39539 21.9738 8.27517 21.8207 8.94644 21.6845L8.92586 19.7205C6.12193 19.2126 3.88668 16.93 3.34171 13.9868C4.15939 14.2408 5.04718 14.4012 5.94762 14.4012H9.12982L6.51963 12.581C4.64142 11.2712 3.34762 9.00132 3.34762 6.50369C3.34762 5.72218 3.47311 4.93856 3.69793 4.2064C7.85991 8.8307 13.7872 11.7124 20.2881 12.1003L21.6435 12.1812L21.3186 10.8627C21.1922 10.3502 21.081 9.76532 21.081 9.20861C21.081 5.14906 24.38 1.82336 28.3476 1.82336C30.3244 1.82336 32.1918 2.64513 33.608 4.20133L33.9963 4.628L34.56 4.50547C35.4508 4.31185 36.314 4.05947 37.1493 3.74824C36.6594 4.32909 36.082 4.83527 35.4181 5.24966L36.1143 7.08396C36.5967 7.00241 37.0829 6.90834 37.569 6.79786C37.0156 7.31597 36.4145 7.80444 35.7729 8.25499L35.3476 8.55366V9.07336V9.07574V9.07811V9.08048V9.08285V9.08521V9.08757V9.08993V9.09229V9.09464V9.09698V9.09933V9.10167V9.10401V9.10635V9.10868V9.11101V9.11334V9.11567V9.11799V9.12031V9.12263V9.12494V9.12725V9.12956V9.13186V9.13416V9.13647V9.13876V9.14106V9.14335V9.14564V9.14792V9.1502V9.15248V9.15476V9.15704V9.15931V9.16158V9.16385V9.16611V9.16837V9.17063V9.17289V9.17514V9.1774V9.17964V9.18189V9.18413V9.18638V9.18861V9.19085V9.19309V9.19532V9.19755V9.19977V9.202V9.20422V9.20644V9.20866V9.21087V9.21308V9.21529V9.2175V9.2197V9.22191V9.22411V9.22631V9.2285V9.2307V9.23289V9.23508V9.23726V9.23945V9.24163V9.24381V9.24599V9.24817V9.25034V9.25251V9.25468V9.25685V9.25901V9.26118V9.26334V9.2655V9.26765V9.26981V9.27196V9.27411V9.27626V9.27841V9.28055V9.28269V9.28483V9.28697V9.28911V9.29125V9.29338V9.29551V9.29764V9.29977V9.30189V9.30402V9.30614V9.30826V9.31038V9.31249V9.31461V9.31672V9.31883V9.32094V9.32305V9.32515V9.32726V9.32936V9.33146V9.33356V9.33565V9.33775V9.33984V9.34194V9.34403V9.34612V9.3482V9.35029V9.35237V9.35445V9.35654V9.35861V9.36069V9.36277V9.36484V9.36692V9.36899V9.37106V9.37313V9.3752V9.37726V9.37933V9.38139V9.38345V9.38551V9.38757V9.38963V9.39169V9.39374V9.39579V9.39785V9.3999V9.40195V9.404V9.40604V9.40809V9.41013V9.41218V9.41422V9.41626V9.4183V9.42034V9.42238V9.42441V9.42645V9.42848V9.43051V9.43255V9.43458V9.43661V9.43863V9.44066V9.44269V9.44471V9.44674V9.44876V9.45078V9.4528V9.45483V9.45684V9.45886V9.46088V9.4629V9.46491V9.46693V9.46894V9.47095V9.47297V9.47498V9.47699V9.479V9.48101V9.48301V9.48502V9.48703V9.48903V9.49104V9.49304V9.49504V9.49705V9.49905V9.50105V9.50305V9.50505V9.50705V9.50905V9.51105V9.51304V9.51504V9.51704V9.51903V9.52103V9.52302V9.52501V9.52701V9.529V9.53099V9.53298V9.53497V9.53696V9.53895V9.54094V9.54293V9.54492V9.54691V9.5489V9.55089V9.55287V9.55486V9.55685V9.55883V9.56082V9.5628V9.56479V9.56677V9.56876V9.57074V9.57273V9.57471V9.57669V9.57868V9.58066V9.58264V9.58462V9.58661V9.58859V9.59057V9.59255V9.59453V9.59652V9.5985V9.60048V9.60246V9.60444V9.60642V9.60841V9.61039V9.61237V9.61435V9.61633V9.61831V9.62029V9.62227V9.62425V9.62624V9.62822V9.6302V9.63218V9.63416V9.63614V9.63813V9.64011V9.64209V9.64407V9.64606V9.64804V9.65002V9.652V9.65399V9.65597V9.65796V9.65994V9.66192V9.66391V9.66589V9.66788V9.66986V9.67185V9.67384V9.67582V9.67781V9.6798V9.68179V9.68377V9.68576V9.68775V9.68974V9.69173V9.69372V9.69571V9.69771V9.6997V9.70169V9.70368V9.70568V9.70767V9.70967V9.71166V9.71366V9.71565V9.71765V9.71965V9.72165V9.72365V9.72565V9.72765V9.72965V9.73165V9.73365V9.73566V9.73766V9.73966V9.74167V9.74368V9.74568V9.74769V9.7497V9.75171V9.75372V9.75573V9.75774V9.75976V9.76177V9.76378V9.7658V9.76782V9.76983V9.77185V9.77387V9.77589V9.77791V9.77994V9.78196V9.78398V9.78601V9.78803V9.79006V9.79209V9.79412V9.79615V9.79818V9.80022V9.80225V9.80429V9.80632V9.80836V9.8104V9.81244V9.81448V9.81652V9.81856V9.82061V9.82265V9.8247V9.82675V9.8288V9.83085V9.8329V9.83496V9.83701V9.83907V9.84113V9.84318V9.84524V9.84731V9.84937V9.85143V9.8535V9.85557V9.85764V9.85971V9.86178V9.86385V9.86593V9.868V9.87008V9.87216V9.87424V9.87632V9.87841V9.88049V9.88258V9.88467V9.88676V9.88885V9.89095V9.89304V9.89514V9.89724V9.89934V9.90144V9.90354V9.90565V9.90776V9.90987V9.91198V9.91409V9.9162V9.91832V9.92044V9.92256V9.92468V9.9268V9.92893V9.93106V9.93319V9.93532V9.93745V9.93959V9.94172V9.94386V9.946V9.94814V9.95029V9.95244V9.95459V9.95674V9.95889V9.96104V9.9632V9.96536V9.96752V9.96968V9.97185V9.97402V9.97619V9.97836V9.98053V9.98271V9.98489V9.98707V9.98925V9.99143V9.99362V9.99581V9.998V10.0002V10.0024V10.0046V10.0068V10.009V10.0112V10.0134V10.0156V10.0178V10.02V10.0223V10.0245V10.0267V10.0289V10.0311V10.0334V10.0356V10.0378V10.0401V10.0423V10.0446V10.0468V10.0491V10.0513V10.0536V10.0558V10.0581V10.0603V10.0626V10.0648V10.0671V10.0694V10.0717V10.0739V10.0762V10.0785V10.0808V10.0831V10.0853V10.0876V10.0899V10.0922V10.0945V10.0968V10.0991V10.1014V10.1038V10.1061V10.1084V10.1107V10.113V10.1154V10.1177V10.12V10.1223V10.1247V10.127V10.1294V10.1317V10.1341V10.1364V10.1388V10.1411V10.1435V10.1458V10.1482V10.1506V10.153V10.1553C35.3476 20.6949 27.401 32.8234 13.0143 32.8234C10.078 32.8234 7.18933 32.1672 4.55316 31.0524C7.75221 30.6818 10.7845 29.4517 13.2489 27.4282L15.2821 25.7587L12.6533 25.6561Z" stroke="#DFF973" stroke-width="2"/>
</g>
<defs>
<clipPath id="clip0">
<rect width="40" height="33" fill="white" transform="translate(0.616699 0.823364)"/>
</clipPath>
</defs>
</svg>
