<svg width="45" height="45" viewBox="0 0 45 45" fill="none" xmlns="http://www.w3.org/2000/svg">
<path d="M31.7978 30.5702H12.4378C12.1738 30.5702 11.9098 30.3942 11.7338 30.2182C11.5578 30.0422 11.5578 29.6902 11.6458 29.4262L13.3178 25.2022L11.6458 9.45019H6.27783V7.69019H12.4378C12.8778 7.69019 13.2298 8.04219 13.3178 8.48219L15.0778 25.2022C15.0778 25.3782 15.0778 25.4662 14.9898 25.6422L13.7578 28.8102H32.6778L31.7978 30.5702Z" fill="#A9FAF6"/>
<path d="M14.3739 26.1702L14.0219 24.4102L34.4379 20.1862V12.9702H13.3179V11.2102H35.3179C35.8459 11.2102 36.1979 11.5622 36.1979 12.0902V20.8902C36.1979 21.3302 35.9339 21.6822 35.4939 21.7702L14.3739 26.1702Z" fill="#A9FAF6"/>
<path d="M32.6777 35.8502C30.7417 35.8502 29.1577 34.2662 29.1577 32.3302C29.1577 30.3942 30.7417 28.8102 32.6777 28.8102C34.6137 28.8102 36.1977 30.3942 36.1977 32.3302C36.1977 34.2662 34.6137 35.8502 32.6777 35.8502ZM32.6777 30.5702C31.7097 30.5702 30.9177 31.3622 30.9177 32.3302C30.9177 33.2982 31.7097 34.0902 32.6777 34.0902C33.6457 34.0902 34.4377 33.2982 34.4377 32.3302C34.4377 31.3622 33.6457 30.5702 32.6777 30.5702Z" fill="#A9FAF6"/>
<path d="M11.5578 35.8502C9.62184 35.8502 8.03784 34.2662 8.03784 32.3302C8.03784 30.3942 9.62184 28.8102 11.5578 28.8102C13.4938 28.8102 15.0778 30.3942 15.0778 32.3302C15.0778 34.2662 13.4938 35.8502 11.5578 35.8502ZM11.5578 30.5702C10.5898 30.5702 9.79784 31.3622 9.79784 32.3302C9.79784 33.2982 10.5898 34.0902 11.5578 34.0902C12.5258 34.0902 13.3178 33.2982 13.3178 32.3302C13.3178 31.3622 12.5258 30.5702 11.5578 30.5702Z" fill="#A9FAF6"/>
</svg>
